AnekGurmukhi-CondensedExtraBold.ufo
<glyph name="Danda.gm" format="2">
  <advance width="560"/>
  <unicode hex="0964"/>
  <outline>
    <contour>
      <point x="130" y="0" type="line"/>
      <point x="430" y="0" type="line"/>
      <point x="430" y="1262" type="line"/>
      <point x="130" y="1262" type="line"/>
    </contour>
  </outline>
</glyph>
<glyph name="Doubledanda.gm" format="2">
  <advance width="985"/>
  <unicode hex="0965"/>
  <outline>
    <contour>
      <point x="565" y="0" type="line"/>
      <point x="855" y="0" type="line"/>
      <point x="855" y="1262" type="line"/>
      <point x="565" y="1262" type="line"/>
    </contour>
    <contour>
      <point x="130" y="0" type="line"/>
      <point x="420" y="0" type="line"/>
      <point x="420" y="1262" type="line"/>
      <point x="130" y="1262" type="line"/>
    </contour>
  </outline>
</glyph>
<glyph name="AddakBindi.gm" format="2">
  <unicode hex="0A01"/>
  <anchor x="374" y="1200" name="_top"/>
  <outline>
    <contour>
      <point x="270" y="1640" type="curve" smooth="yes"/>
      <point x="327" y="1640"/>
      <point x="355" y="1675"/>
      <point x="355" y="1733" type="curve" smooth="yes"/>
      <point x="355" y="1739" type="line" smooth="yes"/>
      <point x="355" y="1797"/>
      <point x="327" y="1832"/>
      <point x="270" y="1832" type="curve" smooth="yes"/>
      <point x="212" y="1832"/>
      <point x="185" y="1797"/>
      <point x="185" y="1739" type="curve" smooth="yes"/>
      <point x="185" y="1733" type="line" smooth="yes"/>
      <point x="185" y="1675"/>
      <point x="212" y="1640"/>
    </contour>
    <component base="Addak.gm"/>
  </outline>
</glyph>
<glyph name="Bindi.gm" format="2">
  <unicode hex="0A02"/>
  <anchor x="400" y="1200" name="_top"/>
  <outline>
    <contour>
      <point x="247" y="1389" type="curve" smooth="yes"/>
      <point x="349" y="1389"/>
      <point x="399" y="1451"/>
      <point x="399" y="1555" type="curve" smooth="yes"/>
      <point x="399" y="1565" type="line" smooth="yes"/>
      <point x="399" y="1669"/>
      <point x="349" y="1732"/>
      <point x="247" y="1732" type="curve" smooth="yes"/>
      <point x="144" y="1732"/>
      <point x="96" y="1669"/>
      <point x="96" y="1565" type="curve" smooth="yes"/>
      <point x="96" y="1555" type="line" smooth="yes"/>
      <point x="96" y="1451"/>
      <point x="144" y="1389"/>
    </contour>
  </outline>
</glyph>
<glyph name="Visarga.gm" format="2">
  <advance width="523"/>
  <unicode hex="0A03"/>
  <outline>
    <contour>
      <point x="261" y="552" type="curve" smooth="yes"/>
      <point x="366" y="552"/>
      <point x="423" y="616"/>
      <point x="423" y="731" type="curve" smooth="yes"/>
      <point x="423" y="756" type="line" smooth="yes"/>
      <point x="423" y="871"/>
      <point x="366" y="936"/>
      <point x="261" y="936" type="curve" smooth="yes"/>
      <point x="154" y="936"/>
      <point x="100" y="871"/>
      <point x="100" y="756" type="curve" smooth="yes"/>
      <point x="100" y="731" type="line" smooth="yes"/>
      <point x="100" y="616"/>
      <point x="154" y="552"/>
    </contour>
    <contour>
      <point x="261" y="-27" type="curve" smooth="yes"/>
      <point x="366" y="-27"/>
      <point x="423" y="37"/>
      <point x="423" y="152" type="curve" smooth="yes"/>
      <point x="423" y="177" type="line" smooth="yes"/>
      <point x="423" y="292"/>
      <point x="366" y="357"/>
      <point x="261" y="357" type="curve" smooth="yes"/>
      <point x="154" y="357"/>
      <point x="100" y="292"/>
      <point x="100" y="177" type="curve" smooth="yes"/>
      <point x="100" y="152" type="line" smooth="yes"/>
      <point x="100" y="37"/>
      <point x="154" y="-27"/>
    </contour>
  </outline>
</glyph>
<glyph name="VowelA.gm" format="2">
  <advance width="1337"/>
  <unicode hex="0A05"/>
  <anchor x="1264" y="1200" name="top"/>
  <outline>
    <contour>
      <point x="488" y="103" type="curve"/>
      <point x="789" y="103" type="line"/>
      <point x="815" y="256"/>
      <point x="833" y="447"/>
      <point x="833" y="618" type="curve" smooth="yes"/>
      <point x="833" y="739"/>
      <point x="826" y="912"/>
      <point x="814" y="1083" type="curve"/>
      <point x="579" y="1083" type="line"/>
      <point x="198" y="789" type="line"/>
      <point x="268" y="521" type="line"/>
      <point x="599" y="782" type="line"/>
      <point x="528" y="819" type="line"/>
      <point x="534" y="756"/>
      <point x="537" y="681"/>
      <point x="537" y="618" type="curve" smooth="yes"/>
      <point x="537" y="457"/>
      <point x="519" y="266"/>
    </contour>
    <contour>
      <point x="57" y="313" type="curve"/>
      <point x="366" y="313" type="line"/>
      <point x="394" y="453"/>
      <point x="410" y="644"/>
      <point x="410" y="828" type="curve" smooth="yes"/>
      <point x="410" y="953"/>
      <point x="405" y="1095"/>
      <point x="396" y="1262" type="curve"/>
      <point x="13" y="1262" type="line"/>
      <point x="13" y="1029" type="line"/>
      <point x="96" y="1029" type="line"/>
      <point x="102" y="962"/>
      <point x="105" y="895"/>
      <point x="105" y="828" type="curve" smooth="yes"/>
      <point x="105" y="665"/>
      <point x="92" y="498"/>
    </contour>
    <contour>
      <point x="665" y="304" type="line"/>
      <point x="1038" y="535" type="line"/>
      <point x="1038" y="860" type="line"/>
      <point x="665" y="629" type="line"/>
    </contour>
    <component base="_cap.shiro_left"/>
    <component base="_danda" xOffset="773"/>
  </outline>
</glyph>
<glyph name="VowelEe.gm" format="2">
  <advance width="891"/>
  <unicode hex="0A0F"/>
  <anchor x="1098" y="1373" name="top1"/>
  <outline>
    <contour>
      <point x="534" y="-23" type="curve" smooth="yes"/>
      <point x="648" y="-23"/>
      <point x="746" y="0"/>
      <point x="819" y="45" type="curve"/>
      <point x="834" y="300" type="line"/>
      <point x="760" y="255"/>
      <point x="672" y="232"/>
      <point x="578" y="232" type="curve" smooth="yes"/>
      <point x="446" y="232"/>
      <point x="377" y="288"/>
      <point x="377" y="394" type="curve" smooth="yes"/>
      <point x="377" y="508" type="line"/>
      <point x="298" y="367" type="line"/>
      <point x="462" y="439"/>
      <point x="652" y="502"/>
      <point x="808" y="548" type="curve"/>
      <point x="808" y="1097" type="line"/>
      <point x="513" y="1097" type="line"/>
      <point x="513" y="729" type="line"/>
      <point x="465" y="713"/>
      <point x="417" y="697"/>
      <point x="370" y="681" type="curve"/>
      <point x="355" y="676" type="line"/>
      <point x="256" y="640"/>
      <point x="161" y="603"/>
      <point x="74" y="564" type="curve"/>
      <point x="74" y="386" type="line" smooth="yes"/>
      <point x="74" y="121"/>
      <point x="236" y="-23"/>
    </contour>
    <contour>
      <point x="367" y="636" type="line"/>
      <point x="382" y="646" type="line"/>
      <point x="427" y="663" type="line"/>
      <point x="387" y="710"/>
      <point x="381" y="789"/>
      <point x="381" y="869" type="curve" smooth="yes"/>
      <point x="381" y="1101" type="line"/>
      <point x="63" y="1101" type="line"/>
      <point x="63" y="928" type="line" smooth="yes"/>
      <point x="63" y="736"/>
      <point x="159" y="651"/>
      <point x="328" y="648" type="curve"/>
    </contour>
    <contour>
      <point x="11" y="1029" type="line"/>
      <point x="208" y="1029" type="line"/>
      <point x="239" y="1047" type="line"/>
      <point x="649" y="1047" type="line"/>
      <point x="679" y="1029" type="line"/>
      <point x="856" y="1029" type="line"/>
      <point x="856" y="1262" type="line"/>
      <point x="11" y="1262" type="line"/>
    </contour>
    <contour>
      <point x="651" y="1229" type="line"/>
      <point x="798" y="1229" type="line"/>
      <point x="805" y="1640"/>
      <point x="634" y="1753"/>
      <point x="341" y="1753" type="curve" smooth="yes"/>
      <point x="289" y="1753"/>
      <point x="246" y="1748"/>
      <point x="210" y="1741" type="curve"/>
      <point x="195" y="1477" type="line"/>
      <point x="249" y="1488"/>
      <point x="282" y="1490"/>
      <point x="341" y="1490" type="curve" smooth="yes"/>
      <point x="526" y="1490"/>
      <point x="651" y="1413"/>
      <point x="651" y="1233" type="curve" smooth="yes"/>
    </contour>
    <component base="_cap.shiro_left"/>
    <component base="_cap.shiro_right" xOffset="558"/>
  </outline>
</glyph>
<glyph name="VowelOo.gm" format="2">
  <advance width="970"/>
  <unicode hex="0A13"/>
  <outline>
    <contour>
      <point x="499" y="-24" type="curve" smooth="yes"/>
      <point x="784" y="-24"/>
      <point x="904" y="136"/>
      <point x="904" y="366" type="curve" smooth="yes"/>
      <point x="904" y="386" type="line" smooth="yes"/>
      <point x="904" y="502"/>
      <point x="862" y="659"/>
      <point x="558" y="659" type="curve"/>
      <point x="650" y="541" type="line"/>
      <point x="650" y="662" type="line"/>
      <point x="860" y="662"/>
      <point x="915" y="824"/>
      <point x="915" y="986" type="curve" smooth="yes"/>
      <point x="915" y="1099" type="line"/>
      <point x="612" y="1099" type="line"/>
      <point x="612" y="948" type="line" smooth="yes"/>
      <point x="612" y="795"/>
      <point x="544" y="771"/>
      <point x="453" y="771" type="curve" smooth="yes"/>
      <point x="245" y="771" type="line"/>
      <point x="245" y="513" type="line"/>
      <point x="490" y="513" type="line" smooth="yes"/>
      <point x="553" y="513"/>
      <point x="593" y="475"/>
      <point x="593" y="408" type="curve" smooth="yes"/>
      <point x="593" y="377" type="line" smooth="yes"/>
      <point x="593" y="286"/>
      <point x="566" y="231"/>
      <point x="492" y="231" type="curve" smooth="yes"/>
      <point x="420" y="231"/>
      <point x="384" y="288"/>
      <point x="384" y="408" type="curve"/>
      <point x="384" y="1200" type="line" smooth="yes"/>
      <point x="384" y="1398"/>
      <point x="463" y="1465"/>
      <point x="615" y="1465" type="curve" smooth="yes"/>
      <point x="678" y="1465"/>
      <point x="740" y="1458"/>
      <point x="823" y="1440" type="curve"/>
      <point x="809" y="1689" type="line"/>
      <point x="747" y="1705"/>
      <point x="669" y="1719"/>
      <point x="583" y="1719" type="curve" smooth="yes"/>
      <point x="259" y="1719"/>
      <point x="80" y="1551"/>
      <point x="80" y="1200" type="curve" smooth="yes"/>
      <point x="80" y="415" type="line"/>
      <point x="80" y="134"/>
      <point x="229" y="-24"/>
    </contour>
    <contour>
      <point x="0" y="1029" type="line"/>
      <point x="204" y="1029" type="line"/>
      <point x="205" y="1033" type="line"/>
      <point x="765" y="1033" type="line"/>
      <point x="767" y="1029" type="line"/>
      <point x="946" y="1029" type="line"/>
      <point x="946" y="1262" type="line"/>
      <point x="0" y="1262" type="line"/>
    </contour>
    <component base="_cap.shiro_left"/>
    <component base="_cap.shiro_right" xOffset="637"/>
  </outline>
</glyph>
<glyph name="Ka.gm" format="2">
  <advance width="990"/>
  <unicode hex="0A15"/>
  <anchor x="1090" y="100" name="bottom"/>
  <anchor x="1039" y="100" name="bottom1"/>
  <anchor x="928" y="1200" name="top"/>
  <outline>
    <contour>
      <point x="18" y="1029" type="line"/>
      <point x="990" y="1029" type="line"/>
      <point x="990" y="1262" type="line"/>
      <point x="18" y="1262" type="line"/>
    </contour>
    <contour>
      <point x="617" y="0" type="line"/>
      <point x="921" y="0" type="line"/>
      <point x="916" y="127" type="line" smooth="yes"/>
      <point x="906" y="392"/>
      <point x="837" y="516"/>
      <point x="738" y="616" type="curve"/>
      <point x="644" y="725" type="line"/>
      <point x="587" y="845"/>
      <point x="506" y="897"/>
      <point x="362" y="897" type="curve" smooth="yes"/>
      <point x="168" y="897"/>
      <point x="53" y="767"/>
      <point x="53" y="548" type="curve" smooth="yes"/>
      <point x="53" y="524" type="line" smooth="yes"/>
      <point x="53" y="313"/>
      <point x="177" y="189"/>
      <point x="386" y="189" type="curve" smooth="yes"/>
      <point x="497" y="189"/>
      <point x="610" y="247"/>
      <point x="661" y="371" type="curve"/>
      <point x="740" y="478" type="line"/>
      <point x="876" y="637"/>
      <point x="914" y="797"/>
      <point x="924" y="1016" type="curve" smooth="yes"/>
      <point x="930" y="1152" type="line"/>
      <point x="614" y="1148" type="line"/>
      <point x="614" y="1026" type="line" smooth="yes"/>
      <point x="614" y="892"/>
      <point x="581" y="776"/>
      <point x="543" y="710" type="curve"/>
      <point x="575" y="601" type="line"/>
      <point x="575" y="555"/>
      <point x="517" y="450"/>
      <point x="445" y="450" type="curve" smooth="yes"/>
      <point x="393" y="450"/>
      <point x="366" y="479"/>
      <point x="366" y="535" type="curve" smooth="yes"/>
      <point x="366" y="550" type="line" smooth="yes"/>
      <point x="366" y="607"/>
      <point x="393" y="637"/>
      <point x="445" y="637" type="curve" smooth="yes"/>
      <point x="513" y="637"/>
      <point x="575" y="543"/>
      <point x="575" y="484" type="curve"/>
      <point x="547" y="392" type="line"/>
      <point x="567" y="358"/>
      <point x="598" y="301"/>
      <point x="609" y="127" type="curve"/>
    </contour>
    <component base="_cap.shiro_left"/>
    <component base="_cap.shiro_right" xOffset="657"/>
  </outline>
</glyph>
<glyph name="Kha.gm" format="2">
  <advance width="999"/>
  <unicode hex="0A16"/>
  <anchor x="1099" y="100" name="bottom"/>
  <anchor x="1015" y="100" name="bottom1"/>
  <anchor x="920" y="1200" name="top"/>
  <outline>
    <contour>
      <point x="407" y="160" type="curve" smooth="yes"/>
      <point x="465" y="160"/>
      <point x="514" y="170"/>
      <point x="551" y="189" type="curve"/>
      <point x="611" y="381" type="line"/>
      <point x="637" y="381" type="line"/>
      <point x="622" y="458" type="line"/>
      <point x="597" y="438"/>
      <point x="562" y="418"/>
      <point x="501" y="418" type="curve" smooth="yes"/>
      <point x="431" y="418"/>
      <point x="371" y="449"/>
      <point x="353" y="502" type="curve"/>
      <point x="359" y="453" type="line"/>
      <point x="394" y="589"/>
      <point x="410" y="761"/>
      <point x="410" y="945" type="curve" smooth="yes"/>
      <point x="410" y="1049"/>
      <point x="404" y="1156"/>
      <point x="393" y="1262" type="curve"/>
      <point x="34" y="1262" type="line"/>
      <point x="34" y="1029" type="line"/>
      <point x="98" y="1029" type="line"/>
      <point x="102" y="974"/>
      <point x="104" y="920"/>
      <point x="104" y="868" type="curve" smooth="yes"/>
      <point x="104" y="685"/>
      <point x="82" y="516"/>
      <point x="40" y="401" type="curve"/>
      <point x="91" y="249"/>
      <point x="239" y="160"/>
    </contour>
    <contour>
      <point x="227" y="662" type="line"/>
      <point x="783" y="662" type="line"/>
      <point x="783" y="927" type="line"/>
      <point x="227" y="927" type="line"/>
    </contour>
    <component base="_danda" xOffset="435"/>
    <component base="_cap.shiro_left"/>
  </outline>
</glyph>
<glyph name="Ga.gm" format="2">
  <advance width="1316"/>
  <unicode hex="0A17"/>
  <anchor x="1416" y="100" name="bottom"/>
  <anchor x="1220" y="100" name="bottom1"/>
  <anchor x="1238" y="1200" name="top"/>
  <outline>
    <contour>
      <point x="445" y="-20" type="curve" smooth="yes"/>
      <point x="661" y="-20"/>
      <point x="788" y="88"/>
      <point x="788" y="304" type="curve" smooth="yes"/>
      <point x="788" y="1073" type="line"/>
      <point x="485" y="1073" type="line"/>
      <point x="485" y="735" type="line"/>
      <point x="492" y="728" type="line"/>
      <point x="492" y="313" type="line" smooth="yes"/>
      <point x="492" y="269"/>
      <point x="478" y="235"/>
      <point x="440" y="235" type="curve" smooth="yes"/>
      <point x="391" y="235"/>
      <point x="363" y="297"/>
      <point x="363" y="417" type="curve" smooth="yes"/>
      <point x="363" y="492" type="line" smooth="yes"/>
      <point x="363" y="571"/>
      <point x="391" y="602"/>
      <point x="453" y="602" type="curve" smooth="yes"/>
      <point x="582" y="602" type="line"/>
      <point x="582" y="862" type="line"/>
      <point x="435" y="862" type="line" smooth="yes"/>
      <point x="173" y="862"/>
      <point x="62" y="741"/>
      <point x="62" y="501" type="curve" smooth="yes"/>
      <point x="62" y="419" type="line" smooth="yes"/>
      <point x="62" y="173"/>
      <point x="186" y="-20"/>
    </contour>
    <contour>
      <point x="26" y="1029" type="line"/>
      <point x="1003" y="1029" type="line"/>
      <point x="1003" y="1262" type="line"/>
      <point x="26" y="1262" type="line"/>
    </contour>
    <component base="_danda" xOffset="752"/>
    <component base="_cap.shiro_left"/>
  </outline>
</glyph>
<glyph name="Gha.gm" format="2">
  <advance width="1351"/>
  <unicode hex="0A18"/>
  <anchor x="1451" y="100" name="bottom"/>
  <anchor x="1185" y="100" name="bottom1"/>
  <anchor x="1273" y="1200" name="top"/>
  <outline>
    <contour>
      <point x="396" y="198" type="curve" smooth="yes"/>
      <point x="442" y="198"/>
      <point x="473" y="205"/>
      <point x="501" y="216" type="curve"/>
      <point x="545" y="386" type="line"/>
      <point x="711" y="386" type="line"/>
      <point x="622" y="566" type="line"/>
      <point x="568" y="476"/>
      <point x="529" y="454"/>
      <point x="459" y="454" type="curve" smooth="yes"/>
      <point x="397" y="454"/>
      <point x="346" y="484"/>
      <point x="336" y="530" type="curve"/>
      <point x="337" y="456" type="line"/>
      <point x="386" y="575"/>
      <point x="410" y="738"/>
      <point x="410" y="945" type="curve" smooth="yes"/>
      <point x="410" y="1049"/>
      <point x="404" y="1156"/>
      <point x="393" y="1262" type="curve"/>
      <point x="28" y="1262" type="line"/>
      <point x="46" y="1029" type="line"/>
      <point x="98" y="1029" type="line"/>
      <point x="102" y="974"/>
      <point x="104" y="920"/>
      <point x="104" y="868" type="curve" smooth="yes"/>
      <point x="104" y="689"/>
      <point x="82" y="527"/>
      <point x="40" y="414" type="curve"/>
      <point x="100" y="271"/>
      <point x="224" y="198"/>
    </contour>
    <contour>
      <point x="810" y="200" type="curve" smooth="yes"/>
      <point x="842" y="200"/>
      <point x="876" y="206"/>
      <point x="908" y="218" type="curve"/>
      <point x="961" y="394" type="line"/>
      <point x="989" y="394" type="line"/>
      <point x="977" y="476" type="line"/>
      <point x="959" y="462"/>
      <point x="944" y="455"/>
      <point x="906" y="455" type="curve" smooth="yes"/>
      <point x="869" y="455"/>
      <point x="840" y="476"/>
      <point x="831" y="502" type="curve"/>
      <point x="552" y="418" type="line"/>
      <point x="552" y="310"/>
      <point x="636" y="200"/>
    </contour>
    <contour>
      <point x="840" y="1244" type="line"/>
      <point x="540" y="1204" type="line"/>
      <point x="540" y="860" type="line" smooth="yes"/>
      <point x="540" y="735"/>
      <point x="545" y="496"/>
      <point x="554" y="418" type="curve"/>
      <point x="838" y="418" type="line"/>
      <point x="838" y="569"/>
      <point x="840" y="731"/>
      <point x="840" y="876" type="curve" smooth="yes"/>
    </contour>
    <component base="_danda" xOffset="787"/>
    <component base="_cap.shiro_left"/>
  </outline>
</glyph>
<glyph name="Nga.gm" format="2">
  <advance width="901"/>
  <unicode hex="0A19"/>
  <anchor x="850" y="50" name="bottom"/>
  <anchor x="976" y="20" name="bottom1"/>
  <anchor x="812" y="1200" name="top"/>
  <outline>
    <contour>
      <point x="54" y="1029" type="line"/>
      <point x="248" y="1029" type="line"/>
      <point x="252" y="1029" type="line"/>
      <point x="858" y="1029" type="line"/>
      <point x="858" y="1262" type="line"/>
      <point x="54" y="1262" type="line"/>
    </contour>
    <contour>
      <point x="374" y="-10" type="curve" smooth="yes"/>
      <point x="475" y="-10"/>
      <point x="549" y="14"/>
      <point x="605" y="58" type="curve"/>
      <point x="654" y="133" type="line"/>
      <point x="783" y="205"/>
      <point x="840" y="324"/>
      <point x="840" y="504" type="curve" smooth="yes"/>
      <point x="840" y="629" type="line" smooth="yes"/>
      <point x="840" y="796"/>
      <point x="742" y="919"/>
      <point x="500" y="919" type="curve" smooth="yes"/>
      <point x="399" y="919" type="line"/>
      <point x="399" y="1167" type="line"/>
      <point x="90" y="1167" type="line"/>
      <point x="90" y="680" type="line"/>
      <point x="422" y="680" type="line" smooth="yes"/>
      <point x="505" y="680"/>
      <point x="539" y="648"/>
      <point x="539" y="567" type="curve" smooth="yes"/>
      <point x="539" y="542" type="line" smooth="yes"/>
      <point x="539" y="514"/>
      <point x="539" y="499"/>
      <point x="539" y="468" type="curve"/>
      <point x="508" y="317" type="line"/>
      <point x="488" y="262"/>
      <point x="447" y="230"/>
      <point x="403" y="230" type="curve" smooth="yes"/>
      <point x="366" y="230"/>
      <point x="344" y="254"/>
      <point x="344" y="294" type="curve" smooth="yes"/>
      <point x="344" y="300" type="line" smooth="yes"/>
      <point x="344" y="343"/>
      <point x="367" y="368"/>
      <point x="405" y="368" type="curve" smooth="yes"/>
      <point x="456" y="368"/>
      <point x="496" y="317"/>
      <point x="523" y="213" type="curve"/>
      <point x="615" y="335" type="line"/>
      <point x="547" y="567"/>
      <point x="455" y="592"/>
      <point x="330" y="592" type="curve" smooth="yes"/>
      <point x="151" y="592"/>
      <point x="46" y="484"/>
      <point x="46" y="301" type="curve" smooth="yes"/>
      <point x="46" y="299" type="line" smooth="yes"/>
      <point x="46" y="105"/>
      <point x="168" y="-10"/>
    </contour>
    <contour>
      <point x="569" y="-117" type="line"/>
      <point x="868" y="-117" type="line"/>
      <point x="706" y="361" type="line"/>
      <point x="520" y="164" type="line"/>
    </contour>
    <component base="_cap.shiro_left"/>
    <component base="_cap.shiro_right" xOffset="568"/>
  </outline>
</glyph>
<glyph name="Ca.gm" format="2">
  <advance width="934"/>
  <unicode hex="0A1A"/>
  <anchor x="910" y="100" name="bottom"/>
  <anchor x="998" y="100" name="bottom1"/>
  <anchor x="856" y="1200" name="top"/>
  <outline>
    <contour>
      <point x="482" y="-16" type="curve" smooth="yes"/>
      <point x="718" y="-16"/>
      <point x="854" y="91"/>
      <point x="854" y="335" type="curve" smooth="yes"/>
      <point x="854" y="1148" type="line"/>
      <point x="551" y="1148" type="line"/>
      <point x="551" y="663" type="line"/>
      <point x="558" y="650" type="line"/>
      <point x="558" y="335" type="line" smooth="yes"/>
      <point x="558" y="270"/>
      <point x="534" y="239"/>
      <point x="477" y="239" type="curve" smooth="yes"/>
      <point x="406" y="239"/>
      <point x="378" y="307"/>
      <point x="378" y="427" type="curve" smooth="yes"/>
      <point x="378" y="940" type="line"/>
      <point x="74" y="900" type="line"/>
      <point x="74" y="440" type="line" smooth="yes"/>
      <point x="74" y="149"/>
      <point x="227" y="-16"/>
    </contour>
    <contour>
      <point x="210" y="519" type="line"/>
      <point x="702" y="519" type="line"/>
      <point x="702" y="783" type="line"/>
      <point x="210" y="783" type="line"/>
    </contour>
    <contour>
      <point x="24" y="1029" type="line"/>
      <point x="841" y="1029" type="line"/>
      <point x="841" y="1262" type="line"/>
      <point x="24" y="1262" type="line"/>
    </contour>
    <component base="_cap.shiro_left"/>
    <component base="_cap.shiro_right" xOffset="601"/>
  </outline>
</glyph>
<glyph name="Cha.gm" format="2">
  <advance width="937"/>
  <unicode hex="0A1B"/>
  <anchor x="960" y="100" name="bottom"/>
  <anchor x="990" y="100" name="bottom1"/>
  <anchor x="820" y="1200" name="top"/>
  <outline>
    <contour>
      <point x="471" y="-34" type="line"/>
      <point x="537" y="-34" type="line" smooth="yes"/>
      <point x="778" y="-34"/>
      <point x="908" y="68"/>
      <point x="908" y="287" type="curve" smooth="yes"/>
      <point x="908" y="293" type="line" smooth="yes"/>
      <point x="908" y="469"/>
      <point x="780" y="583"/>
      <point x="548" y="583" type="curve" smooth="yes"/>
      <point x="449" y="583" type="line" smooth="yes"/>
      <point x="414" y="583"/>
      <point x="388" y="604"/>
      <point x="388" y="636" type="curve" smooth="yes"/>
      <point x="388" y="668"/>
      <point x="412" y="689"/>
      <point x="451" y="689" type="curve" smooth="yes"/>
      <point x="818" y="689" type="line"/>
      <point x="818" y="1159" type="line"/>
      <point x="509" y="1159" type="line"/>
      <point x="509" y="922" type="line"/>
      <point x="340" y="922" type="line" smooth="yes"/>
      <point x="160" y="922"/>
      <point x="64" y="830"/>
      <point x="64" y="701" type="curve" smooth="yes"/>
      <point x="64" y="565"/>
      <point x="151" y="486"/>
      <point x="287" y="486" type="curve"/>
      <point x="287" y="470" type="line"/>
      <point x="451" y="357" type="line"/>
      <point x="541" y="357" type="line" smooth="yes"/>
      <point x="599" y="357"/>
      <point x="632" y="329"/>
      <point x="632" y="280" type="curve" smooth="yes"/>
      <point x="632" y="278" type="line" smooth="yes"/>
      <point x="632" y="229"/>
      <point x="592" y="205"/>
      <point x="535" y="205" type="curve" smooth="yes"/>
      <point x="471" y="205" type="line"/>
    </contour>
    <contour>
      <point x="399" y="-34" type="curve"/>
      <point x="490" y="-34" type="line"/>
      <point x="490" y="205" type="line"/>
      <point x="425" y="205" type="line" smooth="yes"/>
      <point x="366" y="205"/>
      <point x="328" y="229"/>
      <point x="328" y="278" type="curve" smooth="yes"/>
      <point x="328" y="280" type="line" smooth="yes"/>
      <point x="328" y="329"/>
      <point x="362" y="357"/>
      <point x="425" y="357" type="curve" smooth="yes"/>
      <point x="480" y="357" type="line"/>
      <point x="480" y="478" type="line"/>
      <point x="279" y="478" type="line" smooth="yes"/>
      <point x="151" y="478"/>
      <point x="50" y="397"/>
      <point x="50" y="258" type="curve" smooth="yes"/>
      <point x="50" y="254" type="line" smooth="yes"/>
      <point x="50" y="69"/>
      <point x="182" y="-34"/>
    </contour>
    <contour>
      <point x="419" y="81" type="line"/>
      <point x="541" y="81" type="line"/>
      <point x="541" y="478" type="line"/>
      <point x="419" y="478" type="line"/>
    </contour>
    <contour>
      <point x="37" y="1029" type="line"/>
      <point x="663" y="1029" type="line"/>
      <point x="669" y="1029" type="line"/>
      <point x="901" y="1029" type="line"/>
      <point x="901" y="1262" type="line"/>
      <point x="37" y="1262" type="line"/>
    </contour>
    <component base="_cap.shiro_left"/>
    <component base="_cap.shiro_right" xOffset="604"/>
  </outline>
</glyph>
<glyph name="Ja.gm" format="2">
  <advance width="951"/>
  <unicode hex="0A1C"/>
  <anchor x="1051" y="100" name="bottom"/>
  <anchor x="990" y="100" name="bottom1"/>
  <anchor x="873" y="1200" name="top"/>
  <outline>
    <contour>
      <point x="57" y="0" type="curve"/>
      <point x="361" y="0" type="line"/>
      <point x="380" y="155"/>
      <point x="389" y="351"/>
      <point x="389" y="534" type="curve" smooth="yes"/>
      <point x="389" y="670"/>
      <point x="383" y="805"/>
      <point x="371" y="923" type="curve"/>
      <point x="67" y="883" type="line"/>
      <point x="78" y="767"/>
      <point x="85" y="676"/>
      <point x="85" y="542" type="curve" smooth="yes"/>
      <point x="85" y="357"/>
      <point x="76" y="158"/>
    </contour>
    <contour>
      <point x="249" y="480" type="line"/>
      <point x="723" y="480" type="line"/>
      <point x="723" y="744" type="line"/>
      <point x="249" y="744" type="line"/>
    </contour>
    <contour>
      <point x="50" y="1029" type="line"/>
      <point x="714" y="1029" type="line"/>
      <point x="714" y="1262" type="line"/>
      <point x="50" y="1262" type="line"/>
    </contour>
    <component base="_danda" xOffset="387"/>
    <component base="_cap.shiro_left"/>
  </outline>
</glyph>
<glyph name="Jha.gm" format="2">
  <advance width="939"/>
  <unicode hex="0A1D"/>
  <anchor x="843" y="0" name="bottom"/>
  <anchor x="1020" y="0" name="bottom1"/>
  <anchor x="886" y="1200" name="top"/>
  <outline>
    <contour>
      <point x="477" y="73" type="curve" smooth="yes"/>
      <point x="763" y="73"/>
      <point x="883" y="187"/>
      <point x="883" y="377" type="curve" smooth="yes"/>
      <point x="883" y="443" type="line" smooth="yes"/>
      <point x="883" y="566"/>
      <point x="818" y="685"/>
      <point x="667" y="718" type="curve"/>
      <point x="667" y="745" type="line"/>
      <point x="470" y="764" type="line"/>
      <point x="272" y="755" type="line"/>
      <point x="272" y="727" type="line"/>
      <point x="208" y="727"/>
      <point x="147" y="721"/>
      <point x="94" y="709" type="curve"/>
      <point x="79" y="450" type="line"/>
      <point x="210" y="480"/>
      <point x="320" y="495"/>
      <point x="400" y="495" type="curve" smooth="yes"/>
      <point x="525" y="495"/>
      <point x="569" y="470"/>
      <point x="569" y="409" type="curve" smooth="yes"/>
      <point x="569" y="405" type="line" smooth="yes"/>
      <point x="569" y="345"/>
      <point x="525" y="321"/>
      <point x="402" y="321" type="curve" smooth="yes"/>
      <point x="311" y="321"/>
      <point x="203" y="337"/>
      <point x="88" y="367" type="curve"/>
      <point x="103" y="121" type="line"/>
      <point x="195" y="99"/>
      <point x="333" y="73"/>
    </contour>
    <contour>
      <point x="339" y="-165" type="line"/>
      <point x="751" y="-165" type="line"/>
      <point x="655" y="-60"/>
      <point x="539" y="24"/>
      <point x="480" y="66" type="curve"/>
      <point x="480" y="148" type="line"/>
      <point x="163" y="124" type="line"/>
    </contour>
    <contour>
      <point x="311" y="734" type="curve"/>
      <point x="474" y="764" type="line"/>
      <point x="415" y="764"/>
      <point x="389" y="801"/>
      <point x="389" y="889" type="curve" smooth="yes"/>
      <point x="389" y="1160" type="line"/>
      <point x="48" y="1160" type="line"/>
      <point x="56" y="930" type="line" smooth="yes"/>
      <point x="61" y="785"/>
      <point x="187" y="743"/>
    </contour>
    <contour>
      <point x="27" y="1029" type="line"/>
      <point x="207" y="1029" type="line"/>
      <point x="216" y="1043" type="line"/>
      <point x="715" y="1043" type="line"/>
      <point x="727" y="1029" type="line"/>
      <point x="833" y="1029" type="line"/>
      <point x="833" y="1262" type="line"/>
      <point x="27" y="1262" type="line"/>
    </contour>
    <contour>
      <point x="882" y="937" type="curve" smooth="yes"/>
      <point x="893" y="1160" type="line"/>
      <point x="551" y="1160" type="line"/>
      <point x="551" y="889" type="line" smooth="yes"/>
      <point x="551" y="801"/>
      <point x="520" y="764"/>
      <point x="467" y="764" type="curve"/>
      <point x="623" y="724" type="line"/>
      <point x="769" y="732"/>
      <point x="874" y="768"/>
    </contour>
    <component base="_cap.shiro_left"/>
    <component base="_cap.shiro_right" xOffset="606"/>
  </outline>
</glyph>
<glyph name="Nya.gm" format="2">
  <advance width="946"/>
  <unicode hex="0A1E"/>
  <anchor x="930" y="100" name="bottom"/>
  <anchor x="1030" y="100" name="bottom1"/>
  <anchor x="863" y="1200" name="top"/>
  <outline>
    <contour>
      <point x="363" y="303" type="curve"/>
      <point x="830" y="303" type="line"/>
      <point x="830" y="538" type="line"/>
      <point x="398" y="538" type="line" smooth="yes"/>
      <point x="368" y="538"/>
      <point x="348" y="557"/>
      <point x="348" y="585" type="curve" smooth="yes"/>
      <point x="348" y="614"/>
      <point x="368" y="633"/>
      <point x="398" y="633" type="curve" smooth="yes"/>
      <point x="861" y="633" type="line"/>
      <point x="861" y="1106" type="line"/>
      <point x="561" y="1106" type="line"/>
      <point x="561" y="868" type="line"/>
      <point x="362" y="868" type="line" smooth="yes"/>
      <point x="157" y="868"/>
      <point x="35" y="761"/>
      <point x="35" y="588" type="curve" smooth="yes"/>
      <point x="35" y="414"/>
      <point x="143" y="303"/>
    </contour>
    <contour>
      <point x="709" y="-28" type="curve" smooth="yes"/>
      <point x="752" y="-28"/>
      <point x="809" y="-22"/>
      <point x="853" y="-13" type="curve"/>
      <point x="868" y="222" type="line"/>
      <point x="826" y="211"/>
      <point x="795" y="207"/>
      <point x="760" y="207" type="curve" smooth="yes"/>
      <point x="659" y="207"/>
      <point x="574" y="226"/>
      <point x="559" y="399" type="curve"/>
      <point x="253" y="399" type="line"/>
      <point x="301" y="74"/>
      <point x="469" y="-28"/>
    </contour>
    <contour>
      <point x="235" y="677" type="curve"/>
      <point x="553" y="744" type="line"/>
      <point x="426" y="842"/>
      <point x="392" y="1012"/>
      <point x="392" y="1198" type="curve"/>
      <point x="64" y="1198" type="line"/>
      <point x="64" y="1003"/>
      <point x="117" y="843"/>
    </contour>
    <contour>
      <point x="129" y="1029" type="line"/>
      <point x="220" y="1029" type="line"/>
      <point x="234" y="1038" type="line"/>
      <point x="699" y="1038" type="line"/>
      <point x="718" y="1029" type="line"/>
      <point x="861" y="1029" type="line"/>
      <point x="861" y="1262" type="line"/>
      <point x="129" y="1262" type="line"/>
    </contour>
    <component base="_cap.shiro_left"/>
    <component base="_cap.shiro_right" xOffset="613"/>
  </outline>
</glyph>
<glyph name="Tta.gm" format="2">
  <advance width="767"/>
  <unicode hex="0A1F"/>
  <anchor x="831" y="100" name="bottom"/>
  <anchor x="914" y="100" name="bottom1"/>
  <anchor x="690" y="1200" name="top"/>
  <outline>
    <contour>
      <point x="481" y="-20" type="curve" smooth="yes"/>
      <point x="575" y="-20"/>
      <point x="658" y="2"/>
      <point x="709" y="42" type="curve"/>
      <point x="724" y="290" type="line"/>
      <point x="671" y="254"/>
      <point x="610" y="235"/>
      <point x="543" y="235" type="curve" smooth="yes"/>
      <point x="444" y="235"/>
      <point x="377" y="298"/>
      <point x="377" y="412" type="curve" smooth="yes"/>
      <point x="377" y="568" type="line"/>
      <point x="292" y="456" type="line"/>
      <point x="396" y="530"/>
      <point x="571" y="611"/>
      <point x="688" y="648" type="curve"/>
      <point x="688" y="1137" type="line"/>
      <point x="388" y="1137" type="line"/>
      <point x="388" y="785" type="line"/>
      <point x="538" y="884" type="line"/>
      <point x="435" y="858"/>
      <point x="195" y="752"/>
      <point x="74" y="670" type="curve"/>
      <point x="74" y="401" type="line" smooth="yes"/>
      <point x="74" y="135"/>
      <point x="226" y="-20"/>
    </contour>
    <contour>
      <point x="55" y="1029" type="line"/>
      <point x="730" y="1029" type="line"/>
      <point x="730" y="1262" type="line"/>
      <point x="55" y="1262" type="line"/>
    </contour>
    <component base="_cap.shiro_left"/>
    <component base="_cap.shiro_right" xOffset="444"/>
  </outline>
</glyph>
<glyph name="Ttha.gm" format="2">
  <advance width="957"/>
  <unicode hex="0A20"/>
  <anchor x="928" y="100" name="bottom"/>
  <anchor x="980" y="100" name="bottom1"/>
  <anchor x="640" y="1200" name="top"/>
  <outline>
    <contour>
      <point x="481" y="-18" type="curve" smooth="yes"/>
      <point x="753" y="-18"/>
      <point x="895" y="123"/>
      <point x="895" y="394" type="curve" smooth="yes"/>
      <point x="895" y="515" type="line" smooth="yes"/>
      <point x="895" y="725"/>
      <point x="778" y="857"/>
      <point x="481" y="925" type="curve"/>
      <point x="185" y="861"/>
      <point x="66" y="725"/>
      <point x="66" y="515" type="curve" smooth="yes"/>
      <point x="66" y="394" type="line" smooth="yes"/>
      <point x="66" y="123"/>
      <point x="208" y="-18"/>
    </contour>
    <contour>
      <point x="481" y="237" type="curve" smooth="yes"/>
      <point x="413" y="237"/>
      <point x="370" y="291"/>
      <point x="370" y="381" type="curve" smooth="yes"/>
      <point x="370" y="519" type="line" smooth="yes"/>
      <point x="370" y="583"/>
      <point x="418" y="639"/>
      <point x="481" y="655" type="curve"/>
      <point x="543" y="639"/>
      <point x="591" y="581"/>
      <point x="591" y="519" type="curve" smooth="yes"/>
      <point x="591" y="381" type="line" smooth="yes"/>
      <point x="591" y="291"/>
      <point x="551" y="237"/>
    </contour>
    <contour>
      <point x="334" y="750" type="line"/>
      <point x="637" y="750" type="line"/>
      <point x="637" y="1156" type="line"/>
      <point x="334" y="1156" type="line"/>
    </contour>
    <contour>
      <point x="41" y="1029" type="line"/>
      <point x="930" y="1029" type="line"/>
      <point x="930" y="1262" type="line"/>
      <point x="41" y="1262" type="line"/>
    </contour>
    <component base="_cap.shiro_left"/>
    <component base="_cap.shiro_right" xOffset="624"/>
  </outline>
</glyph>
<glyph name="Dda.gm" format="2">
  <advance width="938"/>
  <unicode hex="0A21"/>
  <anchor x="920" y="100" name="bottom"/>
  <anchor x="980" y="100" name="bottom1"/>
  <anchor x="841" y="1200" name="top"/>
  <outline>
    <contour>
      <point x="452" y="-24" type="curve" smooth="yes"/>
      <point x="710" y="-24"/>
      <point x="862" y="110"/>
      <point x="862" y="336" type="curve" smooth="yes"/>
      <point x="862" y="492" type="line" smooth="yes"/>
      <point x="862" y="674"/>
      <point x="757" y="777"/>
      <point x="519" y="777" type="curve"/>
      <point x="615" y="661" type="line"/>
      <point x="615" y="777" type="line"/>
      <point x="748" y="777"/>
      <point x="839" y="880"/>
      <point x="839" y="1021" type="curve" smooth="yes"/>
      <point x="839" y="1160" type="line"/>
      <point x="530" y="1160" type="line"/>
      <point x="530" y="1001" type="line" smooth="yes"/>
      <point x="530" y="934"/>
      <point x="511" y="897"/>
      <point x="436" y="897" type="curve"/>
      <point x="159" y="897" type="line"/>
      <point x="159" y="647" type="line"/>
      <point x="433" y="647" type="line"/>
      <point x="511" y="647"/>
      <point x="558" y="576"/>
      <point x="558" y="469" type="curve" smooth="yes"/>
      <point x="558" y="368" type="line"/>
      <point x="558" y="259"/>
      <point x="499" y="226"/>
      <point x="431" y="226" type="curve" smooth="yes"/>
      <point x="381" y="226"/>
      <point x="352" y="248"/>
      <point x="352" y="277" type="curve" smooth="yes"/>
      <point x="352" y="279" type="line" smooth="yes"/>
      <point x="352" y="310"/>
      <point x="379" y="328"/>
      <point x="432" y="328" type="curve" smooth="yes"/>
      <point x="484" y="328"/>
      <point x="543" y="303"/>
      <point x="543" y="159" type="curve"/>
      <point x="561" y="171" type="line"/>
      <point x="561" y="479"/>
      <point x="467" y="545"/>
      <point x="308" y="545" type="curve" smooth="yes"/>
      <point x="153" y="545"/>
      <point x="61" y="448"/>
      <point x="61" y="283" type="curve" smooth="yes"/>
      <point x="61" y="276" type="line" smooth="yes"/>
      <point x="61" y="96"/>
      <point x="195" y="-24"/>
    </contour>
    <contour>
      <point x="37" y="1029" type="line"/>
      <point x="674" y="1029" type="line"/>
      <point x="692" y="1029" type="line"/>
      <point x="906" y="1029" type="line"/>
      <point x="926" y="1262" type="line"/>
      <point x="37" y="1262" type="line"/>
    </contour>
    <component base="_cap.shiro_left"/>
    <component base="_cap.shiro_right" xOffset="605"/>
  </outline>
</glyph>
<glyph name="Ddha.gm" format="2">
  <advance width="912"/>
  <unicode hex="0A22"/>
  <anchor x="910" y="100" name="bottom"/>
  <anchor x="1000" y="100" name="bottom1"/>
  <anchor x="818" y="1200" name="top"/>
  <outline>
    <contour>
      <point x="500" y="-24" type="curve" smooth="yes"/>
      <point x="735" y="-24"/>
      <point x="871" y="97"/>
      <point x="871" y="276" type="curve" smooth="yes"/>
      <point x="871" y="283" type="line" smooth="yes"/>
      <point x="871" y="443"/>
      <point x="783" y="545"/>
      <point x="624" y="545" type="curve" smooth="yes"/>
      <point x="465" y="545"/>
      <point x="379" y="479"/>
      <point x="379" y="171" type="curve"/>
      <point x="399" y="159" type="line"/>
      <point x="395" y="303"/>
      <point x="448" y="328"/>
      <point x="502" y="328" type="curve" smooth="yes"/>
      <point x="553" y="328"/>
      <point x="580" y="306"/>
      <point x="580" y="277" type="curve" smooth="yes"/>
      <point x="580" y="275" type="line" smooth="yes"/>
      <point x="580" y="242"/>
      <point x="548" y="226"/>
      <point x="502" y="226" type="curve" smooth="yes"/>
      <point x="409" y="226"/>
      <point x="370" y="313"/>
      <point x="370" y="453" type="curve"/>
      <point x="370" y="947" type="line"/>
      <point x="66" y="907" type="line"/>
      <point x="66" y="489" type="line"/>
      <point x="66" y="151"/>
      <point x="231" y="-24"/>
    </contour>
    <contour>
      <point x="208" y="604" type="line"/>
      <point x="816" y="604" type="line"/>
      <point x="816" y="1156" type="line"/>
      <point x="513" y="1156" type="line"/>
      <point x="513" y="846" type="line"/>
      <point x="208" y="846" type="line"/>
    </contour>
    <contour>
      <point x="0" y="1029" type="line"/>
      <point x="839" y="1029" type="line"/>
      <point x="839" y="1262" type="line"/>
      <point x="0" y="1262" type="line"/>
    </contour>
    <component base="_cap.shiro_left"/>
    <component base="_cap.shiro_right" xOffset="579"/>
  </outline>
</glyph>
<glyph name="Nna.gm" format="2">
  <advance width="869"/>
  <unicode hex="0A23"/>
  <anchor x="910" y="100" name="bottom"/>
  <anchor x="977" y="100" name="bottom1"/>
  <anchor x="798" y="1200" name="top"/>
  <outline>
    <contour>
      <point x="512" y="-23" type="curve" smooth="yes"/>
      <point x="622" y="-23"/>
      <point x="717" y="-2"/>
      <point x="789" y="43" type="curve"/>
      <point x="804" y="301" type="line"/>
      <point x="731" y="256"/>
      <point x="646" y="232"/>
      <point x="556" y="232" type="curve" smooth="yes"/>
      <point x="436" y="232"/>
      <point x="374" y="277"/>
      <point x="374" y="362" type="curve" smooth="yes"/>
      <point x="374" y="423" type="line"/>
      <point x="294" y="301" type="line"/>
      <point x="423" y="358"/>
      <point x="552" y="399"/>
      <point x="656" y="432" type="curve"/>
      <point x="656" y="785" type="line"/>
      <point x="366" y="787" type="line"/>
      <point x="366" y="607" type="line"/>
      <point x="284" y="577"/>
      <point x="171" y="535"/>
      <point x="64" y="486" type="curve"/>
      <point x="64" y="355" type="line" smooth="yes"/>
      <point x="64" y="109"/>
      <point x="234" y="-23"/>
    </contour>
    <contour>
      <point x="686" y="626" type="curve" smooth="yes"/>
      <point x="788" y="626" type="line"/>
      <point x="788" y="882" type="line"/>
      <point x="690" y="882" type="line" smooth="yes"/>
      <point x="507" y="882"/>
      <point x="431" y="943"/>
      <point x="431" y="1066" type="curve" smooth="yes"/>
      <point x="431" y="1164" type="line"/>
      <point x="122" y="1164" type="line"/>
      <point x="122" y="1066" type="line" smooth="yes"/>
      <point x="122" y="751"/>
      <point x="342" y="626"/>
    </contour>
    <contour>
      <point x="18" y="1029" type="line"/>
      <point x="802" y="1029" type="line"/>
      <point x="802" y="1262" type="line"/>
      <point x="18" y="1262" type="line"/>
    </contour>
    <component base="_cap.shiro_left"/>
    <component base="_cap.shiro_right" xOffset="536"/>
  </outline>
</glyph>
<glyph name="Ta.gm" format="2">
  <advance width="787"/>
  <unicode hex="0A24"/>
  <anchor x="778" y="100" name="bottom"/>
  <anchor x="890" y="100" name="bottom1"/>
  <anchor x="707" y="1200" name="top"/>
  <outline>
    <contour>
      <point x="54" y="1029" type="line"/>
      <point x="729" y="1029" type="line"/>
      <point x="729" y="1262" type="line"/>
      <point x="54" y="1262" type="line"/>
    </contour>
    <contour>
      <point x="339" y="-18" type="curve" smooth="yes"/>
      <point x="615" y="-18"/>
      <point x="729" y="119"/>
      <point x="729" y="324" type="curve" smooth="yes"/>
      <point x="729" y="374" type="line" smooth="yes"/>
      <point x="729" y="562"/>
      <point x="624" y="654"/>
      <point x="386" y="651" type="curve"/>
      <point x="482" y="537" type="line"/>
      <point x="482" y="654" type="line"/>
      <point x="615" y="660"/>
      <point x="705" y="736"/>
      <point x="705" y="904" type="curve" smooth="yes"/>
      <point x="705" y="1152" type="line"/>
      <point x="401" y="1152" type="line"/>
      <point x="401" y="914" type="line" smooth="yes"/>
      <point x="401" y="832"/>
      <point x="375" y="786"/>
      <point x="263" y="786" type="curve" smooth="yes"/>
      <point x="122" y="786" type="line"/>
      <point x="122" y="506" type="line"/>
      <point x="286" y="506" type="line" smooth="yes"/>
      <point x="396" y="506"/>
      <point x="425" y="462"/>
      <point x="425" y="386" type="curve" smooth="yes"/>
      <point x="425" y="354" type="line" smooth="yes"/>
      <point x="425" y="279"/>
      <point x="378" y="237"/>
      <point x="284" y="237" type="curve" smooth="yes"/>
      <point x="206" y="237"/>
      <point x="126" y="262"/>
      <point x="63" y="290" type="curve"/>
      <point x="78" y="32" type="line"/>
      <point x="138" y="5"/>
      <point x="233" y="-18"/>
    </contour>
    <component base="_cap.shiro_left"/>
    <component base="_cap.shiro_right" xOffset="455"/>
  </outline>
</glyph>
<glyph name="Tha.gm" format="2">
  <advance width="1026"/>
  <unicode hex="0A25"/>
  <anchor x="1126" y="100" name="bottom"/>
  <anchor x="1060" y="100" name="bottom1"/>
  <anchor x="948" y="1200" name="top"/>
  <outline>
    <contour>
      <point x="275" y="598" type="line"/>
      <point x="807" y="598" type="line"/>
      <point x="807" y="857" type="line"/>
      <point x="275" y="857" type="line"/>
    </contour>
    <contour>
      <point x="219" y="1029" type="line"/>
      <point x="275" y="1029" type="line"/>
      <point x="285" y="1049" type="line"/>
      <point x="812" y="1049" type="line"/>
      <point x="818" y="1030" type="line"/>
      <point x="856" y="1030" type="line"/>
      <point x="856" y="1262" type="line"/>
      <point x="219" y="1262" type="line"/>
    </contour>
    <contour>
      <point x="423" y="160" type="curve" smooth="yes"/>
      <point x="487" y="160"/>
      <point x="540" y="170"/>
      <point x="581" y="189" type="curve"/>
      <point x="641" y="381" type="line"/>
      <point x="667" y="381" type="line"/>
      <point x="652" y="458" type="line"/>
      <point x="623" y="438"/>
      <point x="582" y="418"/>
      <point x="511" y="418" type="curve" smooth="yes"/>
      <point x="436" y="418"/>
      <point x="372" y="449"/>
      <point x="353" y="502" type="curve"/>
      <point x="359" y="453" type="line"/>
      <point x="394" y="589"/>
      <point x="410" y="761"/>
      <point x="410" y="945" type="curve" smooth="yes"/>
      <point x="410" y="1049"/>
      <point x="404" y="1156"/>
      <point x="393" y="1262" type="curve"/>
      <point x="34" y="1262" type="line"/>
      <point x="34" y="1029" type="line"/>
      <point x="98" y="1029" type="line"/>
      <point x="102" y="974"/>
      <point x="104" y="920"/>
      <point x="104" y="868" type="curve" smooth="yes"/>
      <point x="104" y="685"/>
      <point x="82" y="516"/>
      <point x="40" y="401" type="curve"/>
      <point x="93" y="249"/>
      <point x="248" y="160"/>
    </contour>
    <component base="_danda" xOffset="462"/>
    <component base="_cap.shiro_left"/>
  </outline>
</glyph>
<glyph name="Da.gm" format="2">
  <advance width="898"/>
  <unicode hex="0A26"/>
  <anchor x="920" y="100" name="bottom"/>
  <anchor x="1000" y="100" name="bottom1"/>
  <anchor x="802" y="1200" name="top"/>
  <outline>
    <contour>
      <point x="553" y="-18" type="curve" smooth="yes"/>
      <point x="656" y="-18"/>
      <point x="756" y="5"/>
      <point x="815" y="43" type="curve"/>
      <point x="830" y="301" type="line"/>
      <point x="768" y="261"/>
      <point x="684" y="237"/>
      <point x="604" y="237" type="curve" smooth="yes"/>
      <point x="471" y="237"/>
      <point x="378" y="303"/>
      <point x="378" y="442" type="curve" smooth="yes"/>
      <point x="378" y="579" type="line"/>
      <point x="368" y="614" type="line"/>
      <point x="368" y="891" type="line"/>
      <point x="74" y="851" type="line"/>
      <point x="74" y="441" type="line" smooth="yes"/>
      <point x="74" y="162"/>
      <point x="226" y="-18"/>
    </contour>
    <contour>
      <point x="223" y="470" type="line"/>
      <point x="800" y="470" type="line"/>
      <point x="800" y="1152" type="line"/>
      <point x="500" y="1152" type="line"/>
      <point x="500" y="728" type="line"/>
      <point x="223" y="728" type="line"/>
    </contour>
    <contour>
      <point x="30" y="1029" type="line"/>
      <point x="880" y="1029" type="line"/>
      <point x="880" y="1262" type="line"/>
      <point x="30" y="1262" type="line"/>
    </contour>
    <component base="_cap.shiro_left"/>
    <component base="_cap.shiro_right" xOffset="565"/>
  </outline>
</glyph>
<glyph name="Na.gm" format="2">
  <advance width="962"/>
  <unicode hex="0A28"/>
  <anchor x="997" y="100" name="bottom"/>
  <anchor x="1000" y="100" name="bottom1"/>
  <anchor x="633" y="1200" name="top"/>
  <outline>
    <contour>
      <point x="145" y="0" type="curve"/>
      <point x="432" y="0" type="line"/>
      <point x="430" y="5" type="line"/>
      <point x="393" y="103"/>
      <point x="370" y="214"/>
      <point x="370" y="329" type="curve" smooth="yes"/>
      <point x="370" y="437" type="line" smooth="yes"/>
      <point x="370" y="555"/>
      <point x="405" y="609"/>
      <point x="482" y="655" type="curve"/>
      <point x="556" y="609"/>
      <point x="592" y="555"/>
      <point x="592" y="437" type="curve" smooth="yes"/>
      <point x="592" y="329" type="line"/>
      <point x="592" y="225"/>
      <point x="572" y="118"/>
      <point x="533" y="8" type="curve"/>
      <point x="530" y="0" type="line"/>
      <point x="815" y="0" type="line"/>
      <point x="861" y="75"/>
      <point x="896" y="193"/>
      <point x="896" y="329" type="curve"/>
      <point x="896" y="446" type="line" smooth="yes"/>
      <point x="896" y="712"/>
      <point x="754" y="879"/>
      <point x="482" y="919" type="curve"/>
      <point x="213" y="879"/>
      <point x="66" y="712"/>
      <point x="66" y="446" type="curve" smooth="yes"/>
      <point x="66" y="329" type="line"/>
      <point x="66" y="193"/>
      <point x="101" y="75"/>
    </contour>
    <contour>
      <point x="329" y="756" type="line"/>
      <point x="633" y="756" type="line"/>
      <point x="633" y="1138" type="line"/>
      <point x="329" y="1138" type="line"/>
    </contour>
    <contour>
      <point x="50" y="1029" type="line"/>
      <point x="924" y="1029" type="line"/>
      <point x="924" y="1262" type="line"/>
      <point x="50" y="1262" type="line"/>
    </contour>
    <component base="_cap.shiro_left"/>
    <component base="_cap.shiro_right" xOffset="629"/>
  </outline>
</glyph>
<glyph name="Pa.gm" format="2">
  <advance width="988"/>
  <unicode hex="0A2A"/>
  <anchor x="1088" y="100" name="bottom"/>
  <anchor x="1025" y="100" name="bottom1"/>
  <anchor x="910" y="1200" name="top"/>
  <outline>
    <contour>
      <point x="407" y="160" type="curve" smooth="yes"/>
      <point x="461" y="160"/>
      <point x="505" y="167"/>
      <point x="539" y="183" type="curve"/>
      <point x="601" y="381" type="line"/>
      <point x="627" y="381" type="line"/>
      <point x="612" y="458" type="line"/>
      <point x="587" y="438"/>
      <point x="552" y="418"/>
      <point x="491" y="418" type="curve" smooth="yes"/>
      <point x="426" y="418"/>
      <point x="370" y="449"/>
      <point x="353" y="502" type="curve"/>
      <point x="359" y="453" type="line"/>
      <point x="394" y="589"/>
      <point x="410" y="761"/>
      <point x="410" y="945" type="curve" smooth="yes"/>
      <point x="410" y="1049"/>
      <point x="404" y="1156"/>
      <point x="393" y="1262" type="curve"/>
      <point x="34" y="1262" type="line"/>
      <point x="34" y="1029" type="line"/>
      <point x="98" y="1029" type="line"/>
      <point x="102" y="974"/>
      <point x="104" y="920"/>
      <point x="104" y="868" type="curve" smooth="yes"/>
      <point x="104" y="685"/>
      <point x="82" y="516"/>
      <point x="40" y="401" type="curve"/>
      <point x="91" y="249"/>
      <point x="239" y="160"/>
    </contour>
    <component base="_danda" xOffset="424"/>
    <component base="_cap.shiro_left"/>
  </outline>
</glyph>
<glyph name="Pha.gm" format="2">
  <advance width="891"/>
  <unicode hex="0A2B"/>
  <anchor x="940" y="100" name="bottom"/>
  <anchor x="990" y="100" name="bottom1"/>
  <anchor x="798" y="1200" name="top"/>
  <outline>
    <contour>
      <point x="499" y="-18" type="curve" smooth="yes"/>
      <point x="735" y="-18"/>
      <point x="867" y="108"/>
      <point x="867" y="281" type="curve" smooth="yes"/>
      <point x="867" y="288" type="line" smooth="yes"/>
      <point x="867" y="466"/>
      <point x="788" y="567"/>
      <point x="624" y="567" type="curve" smooth="yes"/>
      <point x="450" y="567"/>
      <point x="381" y="471"/>
      <point x="381" y="187" type="curve"/>
      <point x="404" y="189" type="line"/>
      <point x="404" y="297"/>
      <point x="445" y="338"/>
      <point x="502" y="338" type="curve" smooth="yes"/>
      <point x="556" y="338"/>
      <point x="578" y="319"/>
      <point x="578" y="283" type="curve" smooth="yes"/>
      <point x="578" y="281" type="line" smooth="yes"/>
      <point x="578" y="246"/>
      <point x="551" y="228"/>
      <point x="501" y="228" type="curve" smooth="yes"/>
      <point x="393" y="228"/>
      <point x="365" y="352"/>
      <point x="365" y="483" type="curve"/>
      <point x="365" y="510" type="line"/>
      <point x="365" y="621"/>
      <point x="418" y="664"/>
      <point x="515" y="664" type="curve" smooth="yes"/>
      <point x="796" y="664" type="line"/>
      <point x="796" y="1166" type="line"/>
      <point x="492" y="1166" type="line"/>
      <point x="492" y="900" type="line"/>
      <point x="403" y="900" type="line"/>
      <point x="177" y="900"/>
      <point x="56" y="770"/>
      <point x="56" y="527" type="curve"/>
      <point x="56" y="483" type="line" smooth="yes"/>
      <point x="56" y="176"/>
      <point x="225" y="-18"/>
    </contour>
    <contour>
      <point x="59" y="1029" type="line"/>
      <point x="651" y="1029" type="line"/>
      <point x="657" y="1029" type="line"/>
      <point x="883" y="1029" type="line"/>
      <point x="883" y="1262" type="line"/>
      <point x="59" y="1262" type="line"/>
    </contour>
    <component base="_cap.shiro_left"/>
    <component base="_cap.shiro_right" xOffset="558"/>
  </outline>
</glyph>
<glyph name="Ba.gm" format="2">
  <advance width="959"/>
  <unicode hex="0A2C"/>
  <anchor x="1059" y="100" name="bottom"/>
  <anchor x="1049" y="100" name="bottom1"/>
  <anchor x="881" y="1200" name="top"/>
  <outline>
    <contour>
      <point x="387" y="113" type="curve" smooth="yes"/>
      <point x="447" y="113"/>
      <point x="491" y="128"/>
      <point x="518" y="145" type="curve"/>
      <point x="569" y="316" type="line"/>
      <point x="590" y="316" type="line"/>
      <point x="579" y="393" type="line"/>
      <point x="559" y="378"/>
      <point x="518" y="371"/>
      <point x="477" y="371" type="curve" smooth="yes"/>
      <point x="417" y="371"/>
      <point x="370" y="408"/>
      <point x="370" y="512" type="curve" smooth="yes"/>
      <point x="370" y="569" type="line"/>
      <point x="331" y="498" type="line"/>
      <point x="430" y="549"/>
      <point x="586" y="591"/>
      <point x="688" y="608" type="curve"/>
      <point x="688" y="858" type="line"/>
      <point x="576" y="845"/>
      <point x="449" y="815"/>
      <point x="329" y="776" type="curve"/>
      <point x="329" y="772" type="line"/>
      <point x="235" y="742"/>
      <point x="138" y="708"/>
      <point x="66" y="671" type="curve"/>
      <point x="66" y="499" type="line" smooth="yes"/>
      <point x="66" y="225"/>
      <point x="204" y="113"/>
    </contour>
    <contour>
      <point x="464" y="767" type="curve"/>
      <point x="492" y="781" type="line"/>
      <point x="411" y="795"/>
      <point x="401" y="867"/>
      <point x="401" y="959" type="curve" smooth="yes"/>
      <point x="401" y="1155" type="line"/>
      <point x="74" y="1155" type="line"/>
      <point x="74" y="1000" type="line" smooth="yes"/>
      <point x="74" y="869"/>
      <point x="159" y="767"/>
    </contour>
    <contour>
      <point x="31" y="1029" type="line"/>
      <point x="234" y="1029" type="line"/>
      <point x="244" y="1043" type="line"/>
      <point x="698" y="1043" type="line"/>
      <point x="713" y="1029" type="line"/>
      <point x="749" y="1029" type="line"/>
      <point x="749" y="1262" type="line"/>
      <point x="31" y="1262" type="line"/>
    </contour>
    <component base="_danda" xOffset="395"/>
    <component base="_cap.shiro_left"/>
  </outline>
</glyph>
<glyph name="Bha.gm" format="2">
  <advance width="864"/>
  <unicode hex="0A2D"/>
  <anchor x="837" y="100" name="bottom"/>
  <anchor x="929" y="100" name="bottom1"/>
  <anchor x="807" y="1200" name="top"/>
  <outline>
    <contour>
      <point x="368" y="-18" type="curve" smooth="yes"/>
      <point x="654" y="-18"/>
      <point x="803" y="101"/>
      <point x="803" y="328" type="curve" smooth="yes"/>
      <point x="803" y="374" type="line" smooth="yes"/>
      <point x="803" y="493"/>
      <point x="776" y="580"/>
      <point x="678" y="640" type="curve"/>
      <point x="595" y="719" type="line"/>
      <point x="525" y="860"/>
      <point x="459" y="935"/>
      <point x="318" y="935" type="curve" smooth="yes"/>
      <point x="151" y="935"/>
      <point x="63" y="830"/>
      <point x="63" y="664" type="curve" smooth="yes"/>
      <point x="63" y="641" type="line" smooth="yes"/>
      <point x="63" y="479"/>
      <point x="154" y="366"/>
      <point x="328" y="366" type="curve" smooth="yes"/>
      <point x="472" y="366"/>
      <point x="546" y="440"/>
      <point x="590" y="552" type="curve"/>
      <point x="678" y="631" type="line"/>
      <point x="678" y="644" type="line"/>
      <point x="772" y="716"/>
      <point x="805" y="824"/>
      <point x="805" y="955" type="curve" smooth="yes"/>
      <point x="805" y="1137" type="line"/>
      <point x="496" y="1137" type="line"/>
      <point x="496" y="970" type="line" smooth="yes"/>
      <point x="496" y="867"/>
      <point x="476" y="804"/>
      <point x="450" y="734" type="curve"/>
      <point x="526" y="699" type="line"/>
      <point x="484" y="592"/>
      <point x="431" y="581"/>
      <point x="397" y="581" type="curve" smooth="yes"/>
      <point x="360" y="581"/>
      <point x="334" y="604"/>
      <point x="334" y="640" type="curve" smooth="yes"/>
      <point x="334" y="646" type="line" smooth="yes"/>
      <point x="334" y="684"/>
      <point x="358" y="710"/>
      <point x="397" y="710" type="curve" smooth="yes"/>
      <point x="449" y="710"/>
      <point x="493" y="660"/>
      <point x="526" y="574" type="curve"/>
      <point x="494" y="561" type="line"/>
      <point x="494" y="521"/>
      <point x="494" y="506"/>
      <point x="494" y="447" type="curve" smooth="yes"/>
      <point x="494" y="378" type="line" smooth="yes"/>
      <point x="494" y="302"/>
      <point x="447" y="237"/>
      <point x="313" y="237" type="curve" smooth="yes"/>
      <point x="225" y="237"/>
      <point x="135" y="262"/>
      <point x="63" y="290" type="curve"/>
      <point x="78" y="32" type="line"/>
      <point x="145" y="5"/>
      <point x="250" y="-18"/>
    </contour>
    <contour>
      <point x="39" y="1029" type="line"/>
      <point x="841" y="1029" type="line"/>
      <point x="841" y="1262" type="line"/>
      <point x="39" y="1262" type="line"/>
    </contour>
    <component base="_cap.shiro_left"/>
    <component base="_cap.shiro_right" xOffset="531"/>
  </outline>
</glyph>
<glyph name="Ma.gm" format="2">
  <advance width="943"/>
  <unicode hex="0A2E"/>
  <anchor x="1043" y="100" name="bottom"/>
  <anchor x="993" y="100" name="bottom1"/>
  <anchor x="865" y="1200" name="top"/>
  <outline>
    <contour>
      <point x="68" y="74" type="curve"/>
      <point x="377" y="74" type="line"/>
      <point x="396" y="234"/>
      <point x="405" y="445"/>
      <point x="405" y="658" type="curve" smooth="yes"/>
      <point x="405" y="874"/>
      <point x="396" y="1092"/>
      <point x="380" y="1262" type="curve"/>
      <point x="40" y="1262" type="line"/>
      <point x="40" y="1029" type="line"/>
      <point x="90" y="1029" type="line"/>
      <point x="97" y="917"/>
      <point x="101" y="788"/>
      <point x="101" y="655" type="curve" smooth="yes"/>
      <point x="101" y="450"/>
      <point x="91" y="238"/>
    </contour>
    <contour>
      <point x="229" y="365" type="line"/>
      <point x="727" y="365" type="line"/>
      <point x="727" y="635" type="line"/>
      <point x="229" y="635" type="line"/>
    </contour>
    <component base="_danda" xOffset="379"/>
    <component base="_cap.shiro_left"/>
  </outline>
</glyph>
<glyph name="Ya.gm" format="2">
  <advance width="1298"/>
  <unicode hex="0A2F"/>
  <anchor x="1398" y="100" name="bottom"/>
  <anchor x="1175" y="100" name="bottom1"/>
  <anchor x="1220" y="1200" name="top"/>
  <outline>
    <contour>
      <point x="489" y="117" type="curve" smooth="yes"/>
      <point x="625" y="117"/>
      <point x="729" y="140"/>
      <point x="798" y="184" type="curve"/>
      <point x="798" y="586" type="line"/>
      <point x="1055" y="586" type="line"/>
      <point x="1055" y="851" type="line"/>
      <point x="507" y="851" type="line"/>
      <point x="507" y="334" type="line"/>
      <point x="572" y="398" type="line"/>
      <point x="547" y="380"/>
      <point x="515" y="371"/>
      <point x="474" y="371" type="curve" smooth="yes"/>
      <point x="425" y="371"/>
      <point x="382" y="391"/>
      <point x="355" y="428" type="curve"/>
      <point x="389" y="545"/>
      <point x="409" y="684"/>
      <point x="409" y="859" type="curve" smooth="yes"/>
      <point x="409" y="931"/>
      <point x="407" y="1024"/>
      <point x="394" y="1158" type="curve"/>
      <point x="83" y="1158" type="line"/>
      <point x="100" y="1026"/>
      <point x="104" y="928"/>
      <point x="104" y="855" type="curve" smooth="yes"/>
      <point x="104" y="668"/>
      <point x="84" y="507"/>
      <point x="40" y="360" type="curve"/>
      <point x="109" y="200"/>
      <point x="264" y="117"/>
    </contour>
    <contour>
      <point x="54" y="1029" type="line"/>
      <point x="1014" y="1029" type="line"/>
      <point x="1014" y="1262" type="line"/>
      <point x="54" y="1262" type="line"/>
    </contour>
    <component base="_danda" xOffset="734"/>
    <component base="_cap.shiro_left"/>
  </outline>
</glyph>
<glyph name="Ra.gm" format="2">
  <advance width="915"/>
  <unicode hex="0A30"/>
  <anchor x="898" y="100" name="bottom"/>
  <anchor x="979" y="100" name="bottom1"/>
  <anchor x="836" y="1200" name="top"/>
  <outline>
    <contour>
      <point x="466" y="-18" type="curve" smooth="yes"/>
      <point x="698" y="-18"/>
      <point x="834" y="119"/>
      <point x="834" y="326" type="curve" smooth="yes"/>
      <point x="834" y="1075" type="line"/>
      <point x="531" y="1075" type="line"/>
      <point x="531" y="757" type="line"/>
      <point x="538" y="720" type="line"/>
      <point x="538" y="335" type="line" smooth="yes"/>
      <point x="538" y="280"/>
      <point x="518" y="237"/>
      <point x="466" y="237" type="curve" smooth="yes"/>
      <point x="396" y="237"/>
      <point x="361" y="318"/>
      <point x="361" y="419" type="curve" smooth="yes"/>
      <point x="361" y="490" type="line" smooth="yes"/>
      <point x="361" y="572"/>
      <point x="388" y="604"/>
      <point x="453" y="604" type="curve" smooth="yes"/>
      <point x="658" y="604" type="line"/>
      <point x="658" y="864" type="line"/>
      <point x="431" y="864" type="line" smooth="yes"/>
      <point x="169" y="864"/>
      <point x="58" y="741"/>
      <point x="58" y="502" type="curve" smooth="yes"/>
      <point x="58" y="421" type="line" smooth="yes"/>
      <point x="58" y="194"/>
      <point x="179" y="-18"/>
    </contour>
    <contour>
      <point x="56" y="1029" type="line"/>
      <point x="865" y="1029" type="line"/>
      <point x="865" y="1262" type="line"/>
      <point x="56" y="1262" type="line"/>
    </contour>
    <component base="_cap.shiro_left"/>
    <component base="_cap.shiro_right" xOffset="582"/>
  </outline>
</glyph>
<glyph name="La.gm" format="2">
  <advance width="1118"/>
  <unicode hex="0A32"/>
  <anchor x="1160" y="100" name="bottom"/>
  <anchor x="1084" y="100" name="bottom1"/>
  <anchor x="966" y="1200" name="top"/>
  <outline>
    <contour>
      <point x="564" y="328" type="curve"/>
      <point x="753" y="460"/>
      <point x="964" y="744"/>
      <point x="964" y="1099" type="curve"/>
      <point x="964" y="1118" type="line"/>
      <point x="660" y="1118" type="line"/>
      <point x="660" y="1059" type="line"/>
      <point x="660" y="916"/>
      <point x="629" y="766"/>
      <point x="564" y="668" type="curve"/>
      <point x="489" y="758"/>
      <point x="457" y="922"/>
      <point x="457" y="1059" type="curve"/>
      <point x="457" y="1118" type="line"/>
      <point x="154" y="1118" type="line"/>
      <point x="154" y="1099" type="line"/>
      <point x="154" y="734"/>
      <point x="364" y="459"/>
    </contour>
    <contour>
      <point x="171" y="0" type="curve"/>
      <point x="445" y="0" type="line"/>
      <point x="465" y="0" type="line"/>
      <point x="391" y="127"/>
      <point x="373" y="210"/>
      <point x="373" y="364" type="curve" smooth="yes"/>
      <point x="373" y="383" type="line" smooth="yes"/>
      <point x="373" y="432"/>
      <point x="373" y="500"/>
      <point x="402" y="550" type="curve"/>
      <point x="312" y="822" type="line"/>
      <point x="135" y="764"/>
      <point x="70" y="604"/>
      <point x="70" y="414" type="curve" smooth="yes"/>
      <point x="70" y="359" type="line" smooth="yes"/>
      <point x="70" y="201"/>
      <point x="108" y="77"/>
    </contour>
    <contour>
      <point x="956" y="0" type="line"/>
      <point x="1030" y="101"/>
      <point x="1048" y="204"/>
      <point x="1048" y="346" type="curve" smooth="yes"/>
      <point x="1048" y="411" type="line" smooth="yes"/>
      <point x="1048" y="617"/>
      <point x="973" y="764"/>
      <point x="793" y="822" type="curve"/>
      <point x="703" y="550" type="line"/>
      <point x="736" y="500"/>
      <point x="745" y="432"/>
      <point x="745" y="383" type="curve" smooth="yes"/>
      <point x="745" y="364" type="line" smooth="yes"/>
      <point x="745" y="195"/>
      <point x="724" y="118"/>
      <point x="662" y="0" type="curve"/>
      <point x="684" y="0" type="line"/>
    </contour>
    <contour>
      <point x="32" y="1029" type="line"/>
      <point x="1063" y="1029" type="line"/>
      <point x="1063" y="1262" type="line"/>
      <point x="32" y="1262" type="line"/>
    </contour>
    <component base="_cap.shiro_left"/>
    <component base="_cap.shiro_right" xOffset="785"/>
  </outline>
</glyph>
<glyph name="Va.gm" format="2">
  <advance width="932"/>
  <unicode hex="0A35"/>
  <anchor x="950" y="100" name="bottom"/>
  <anchor x="1030" y="100" name="bottom1"/>
  <anchor x="858" y="1200" name="top"/>
  <outline>
    <contour>
      <point x="400" y="326" type="curve"/>
      <point x="820" y="326" type="line"/>
      <point x="820" y="565" type="line"/>
      <point x="435" y="565" type="line" smooth="yes"/>
      <point x="394" y="565"/>
      <point x="365" y="582"/>
      <point x="365" y="620" type="curve" smooth="yes"/>
      <point x="365" y="658"/>
      <point x="395" y="675"/>
      <point x="437" y="675" type="curve" smooth="yes"/>
      <point x="856" y="675" type="line"/>
      <point x="856" y="1126" type="line"/>
      <point x="547" y="1126" type="line"/>
      <point x="547" y="914" type="line"/>
      <point x="394" y="914" type="line" smooth="yes"/>
      <point x="169" y="914"/>
      <point x="52" y="813"/>
      <point x="52" y="620" type="curve" smooth="yes"/>
      <point x="52" y="427"/>
      <point x="171" y="326"/>
    </contour>
    <contour>
      <point x="714" y="-28" type="curve" smooth="yes"/>
      <point x="757" y="-28"/>
      <point x="809" y="-20"/>
      <point x="848" y="-13" type="curve"/>
      <point x="863" y="222" type="line"/>
      <point x="825" y="211"/>
      <point x="800" y="207"/>
      <point x="765" y="207" type="curve" smooth="yes"/>
      <point x="674" y="207"/>
      <point x="589" y="226"/>
      <point x="574" y="399" type="curve"/>
      <point x="268" y="399" type="line"/>
      <point x="316" y="74"/>
      <point x="484" y="-28"/>
    </contour>
    <contour>
      <point x="30" y="1029" type="line"/>
      <point x="703" y="1029" type="line"/>
      <point x="712" y="1029" type="line"/>
      <point x="919" y="1029" type="line"/>
      <point x="919" y="1262" type="line"/>
      <point x="30" y="1262" type="line"/>
    </contour>
    <component base="_cap.shiro_left"/>
    <component base="_cap.shiro_right" xOffset="599"/>
  </outline>
</glyph>
<glyph name="Sha.gm" format="2">
  <advance width="1007"/>
  <unicode hex="0A36"/>
  <anchor x="1107" y="100" name="bottom"/>
  <anchor x="1023" y="100" name="bottom1"/>
  <anchor x="929" y="1200" name="top"/>
  <outline>
    <contour>
      <point x="68" y="74" type="curve"/>
      <point x="377" y="74" type="line"/>
      <point x="396" y="234"/>
      <point x="405" y="445"/>
      <point x="405" y="658" type="curve" smooth="yes"/>
      <point x="405" y="874"/>
      <point x="396" y="1092"/>
      <point x="380" y="1262" type="curve"/>
      <point x="0" y="1262" type="line"/>
      <point x="0" y="1029" type="line"/>
      <point x="90" y="1029" type="line"/>
      <point x="97" y="917"/>
      <point x="101" y="788"/>
      <point x="101" y="655" type="curve" smooth="yes"/>
      <point x="101" y="450"/>
      <point x="91" y="238"/>
    </contour>
    <contour>
      <point x="249" y="375" type="line"/>
      <point x="807" y="375" type="line"/>
      <point x="807" y="640" type="line"/>
      <point x="249" y="640" type="line"/>
    </contour>
    <contour>
      <point x="637" y="0" type="line"/>
      <point x="927" y="0" type="line"/>
      <point x="927" y="1029" type="line"/>
      <point x="958" y="1029" type="line"/>
      <point x="958" y="1262" type="line"/>
      <point x="627" y="1262" type="line"/>
      <point x="627" y="526" type="line"/>
      <point x="637" y="487" type="line"/>
    </contour>
    <contour>
      <point x="278" y="1029" type="line"/>
      <point x="767" y="1029" type="line"/>
      <point x="754" y="1262" type="line"/>
      <point x="265" y="1262" type="line"/>
    </contour>
    <contour>
      <point x="512" y="65" type="curve" smooth="yes"/>
      <point x="572" y="65"/>
      <point x="605" y="105"/>
      <point x="605" y="178" type="curve" smooth="yes"/>
      <point x="605" y="194" type="line" smooth="yes"/>
      <point x="605" y="266"/>
      <point x="572" y="307"/>
      <point x="512" y="307" type="curve" smooth="yes"/>
      <point x="452" y="307"/>
      <point x="420" y="266"/>
      <point x="420" y="194" type="curve" smooth="yes"/>
      <point x="420" y="178" type="line" smooth="yes"/>
      <point x="420" y="105"/>
      <point x="452" y="65"/>
    </contour>
    <component base="_cap.shiro_right" xOffset="674"/>
    <component base="_cap.shiro_left"/>
  </outline>
</glyph>
<glyph name="Sa.gm" format="2">
  <advance width="963"/>
  <unicode hex="0A38"/>
  <anchor x="1063" y="100" name="bottom"/>
  <anchor x="993" y="100" name="bottom1"/>
  <anchor x="885" y="1200" name="top"/>
  <outline>
    <contour>
      <point x="68" y="74" type="curve"/>
      <point x="377" y="74" type="line"/>
      <point x="396" y="234"/>
      <point x="405" y="445"/>
      <point x="405" y="658" type="curve" smooth="yes"/>
      <point x="405" y="874"/>
      <point x="396" y="1092"/>
      <point x="380" y="1262" type="curve"/>
      <point x="40" y="1262" type="line"/>
      <point x="40" y="1029" type="line"/>
      <point x="90" y="1029" type="line"/>
      <point x="97" y="917"/>
      <point x="101" y="788"/>
      <point x="101" y="655" type="curve" smooth="yes"/>
      <point x="101" y="450"/>
      <point x="91" y="238"/>
    </contour>
    <contour>
      <point x="259" y="365" type="line"/>
      <point x="707" y="365" type="line"/>
      <point x="707" y="630" type="line"/>
      <point x="259" y="630" type="line"/>
    </contour>
    <contour>
      <point x="115" y="1029" type="line"/>
      <point x="765" y="1029" type="line"/>
      <point x="765" y="1262" type="line"/>
      <point x="115" y="1262" type="line"/>
    </contour>
    <component base="_cap.shiro_left"/>
    <component base="_danda" xOffset="399"/>
  </outline>
</glyph>
<glyph name="Ha.gm" format="2">
  <advance width="912"/>
  <unicode hex="0A39"/>
  <anchor x="897" y="100" name="bottom"/>
  <anchor x="986" y="100" name="bottom1"/>
  <anchor x="834" y="1200" name="top"/>
  <outline>
    <contour>
      <point x="460" y="-18" type="curve" smooth="yes"/>
      <point x="696" y="-18"/>
      <point x="832" y="118"/>
      <point x="832" y="326" type="curve" smooth="yes"/>
      <point x="832" y="1175" type="line"/>
      <point x="532" y="1175" type="line"/>
      <point x="532" y="335" type="line" smooth="yes"/>
      <point x="532" y="280"/>
      <point x="512" y="237"/>
      <point x="460" y="237" type="curve" smooth="yes"/>
      <point x="390" y="237"/>
      <point x="355" y="318"/>
      <point x="355" y="419" type="curve" smooth="yes"/>
      <point x="355" y="490" type="line" smooth="yes"/>
      <point x="355" y="568"/>
      <point x="384" y="604"/>
      <point x="446" y="604" type="curve" smooth="yes"/>
      <point x="447" y="604" type="line"/>
      <point x="468" y="864" type="line"/>
      <point x="425" y="864" type="line" smooth="yes"/>
      <point x="173" y="864"/>
      <point x="52" y="731"/>
      <point x="52" y="502" type="curve" smooth="yes"/>
      <point x="52" y="421" type="line" smooth="yes"/>
      <point x="52" y="194"/>
      <point x="173" y="-18"/>
    </contour>
    <contour>
      <point x="44" y="1029" type="line"/>
      <point x="858" y="1029" type="line"/>
      <point x="858" y="1262" type="line"/>
      <point x="44" y="1262" type="line"/>
    </contour>
    <component base="_cap.shiro_left"/>
    <component base="_cap.shiro_right" xOffset="579"/>
  </outline>
</glyph>
<glyph name="Nukta.gm" format="2">
  <unicode hex="0A3C"/>
  <outline>
    <contour>
      <point x="-474" y="-370" type="curve" smooth="yes"/>
      <point x="-401" y="-370"/>
      <point x="-361" y="-326"/>
      <point x="-361" y="-246" type="curve" smooth="yes"/>
      <point x="-361" y="-229" type="line" smooth="yes"/>
      <point x="-361" y="-150"/>
      <point x="-401" y="-105"/>
      <point x="-474" y="-105" type="curve" smooth="yes"/>
      <point x="-547" y="-105"/>
      <point x="-585" y="-150"/>
      <point x="-585" y="-229" type="curve" smooth="yes"/>
      <point x="-585" y="-246" type="line" smooth="yes"/>
      <point x="-585" y="-326"/>
      <point x="-547" y="-370"/>
    </contour>
  </outline>
</glyph>
<glyph name="MatraU.gm" format="2">
  <unicode hex="0A41"/>
  <anchor x="600" y="100" name="_bottom1"/>
  <outline>
    <contour>
      <point x="86" y="-359" type="curve" smooth="yes"/>
      <point x="191" y="-359"/>
      <point x="323" y="-336"/>
      <point x="405" y="-305" type="curve"/>
      <point x="420" y="-88" type="line"/>
      <point x="338" y="-119"/>
      <point x="205" y="-141"/>
      <point x="86" y="-141" type="curve" smooth="yes"/>
      <point x="-35" y="-141"/>
      <point x="-168" y="-121"/>
      <point x="-248" y="-88" type="curve"/>
      <point x="-234" y="-305" type="line"/>
      <point x="-153" y="-338"/>
      <point x="-37" y="-359"/>
    </contour>
  </outline>
</glyph>
<glyph name="MatraUu.gm" format="2">
  <unicode hex="0A42"/>
  <anchor x="600" y="100" name="_bottom1"/>
  <outline>
    <contour>
      <point x="76" y="-294" type="curve" smooth="yes"/>
      <point x="192" y="-294"/>
      <point x="327" y="-273"/>
      <point x="405" y="-245" type="curve"/>
      <point x="417" y="-73" type="line"/>
      <point x="335" y="-97"/>
      <point x="202" y="-121"/>
      <point x="83" y="-121" type="curve" smooth="yes"/>
      <point x="-38" y="-121"/>
      <point x="-171" y="-99"/>
      <point x="-251" y="-73" type="curve"/>
      <point x="-239" y="-245" type="line"/>
      <point x="-162" y="-275"/>
      <point x="-43" y="-294"/>
    </contour>
    <contour>
      <point x="76" y="-547" type="curve" smooth="yes"/>
      <point x="192" y="-547"/>
      <point x="327" y="-526"/>
      <point x="405" y="-498" type="curve"/>
      <point x="417" y="-326" type="line"/>
      <point x="335" y="-350"/>
      <point x="202" y="-374"/>
      <point x="83" y="-374" type="curve" smooth="yes"/>
      <point x="-38" y="-374"/>
      <point x="-171" y="-352"/>
      <point x="-251" y="-326" type="curve"/>
      <point x="-239" y="-498" type="line"/>
      <point x="-162" y="-528"/>
      <point x="-43" y="-547"/>
    </contour>
  </outline>
</glyph>
<glyph name="MatraEe.gm" format="2">
  <unicode hex="0A47"/>
  <anchor x="400" y="1200" name="_top"/>
  <anchor x="688" y="1373" name="top1"/>
  <outline>
    <contour>
      <point x="241" y="1229" type="line"/>
      <point x="388" y="1229" type="line"/>
      <point x="395" y="1640"/>
      <point x="224" y="1753"/>
      <point x="-69" y="1753" type="curve" smooth="yes"/>
      <point x="-121" y="1753"/>
      <point x="-164" y="1748"/>
      <point x="-200" y="1741" type="curve"/>
      <point x="-215" y="1477" type="line"/>
      <point x="-161" y="1488"/>
      <point x="-128" y="1490"/>
      <point x="-69" y="1490" type="curve" smooth="yes"/>
      <point x="116" y="1490"/>
      <point x="241" y="1413"/>
      <point x="241" y="1233" type="curve" smooth="yes"/>
    </contour>
  </outline>
</glyph>
<glyph name="MatraAi.gm" format="2">
  <unicode hex="0A48"/>
  <anchor x="400" y="1200" name="_top"/>
  <anchor x="738" y="1395" name="top1"/>
  <outline>
    <contour>
      <point x="278" y="1225" type="line"/>
      <point x="388" y="1225" type="line"/>
      <point x="379" y="1382" type="line" smooth="yes"/>
      <point x="358" y="1757"/>
      <point x="205" y="1875"/>
      <point x="-75" y="1875" type="curve" smooth="yes"/>
      <point x="-119" y="1875"/>
      <point x="-175" y="1872"/>
      <point x="-240" y="1863" type="curve"/>
      <point x="-256" y="1647" type="line"/>
      <point x="-200" y="1656"/>
      <point x="-138" y="1662"/>
      <point x="-89" y="1662" type="curve" smooth="yes"/>
      <point x="120" y="1662"/>
      <point x="219" y="1566"/>
      <point x="255" y="1418" type="curve"/>
      <point x="241" y="1412" type="line"/>
    </contour>
    <contour>
      <point x="213" y="1225" type="line"/>
      <point x="286" y="1225" type="line"/>
      <point x="281" y="1293" type="line" smooth="yes"/>
      <point x="266" y="1497"/>
      <point x="115" y="1575"/>
      <point x="-62" y="1575" type="curve" smooth="yes"/>
      <point x="-110" y="1575"/>
      <point x="-149" y="1572"/>
      <point x="-196" y="1565" type="curve"/>
      <point x="-211" y="1352" type="line"/>
      <point x="-133" y="1361"/>
      <point x="-116" y="1362"/>
      <point x="-52" y="1362" type="curve" smooth="yes"/>
      <point x="107" y="1362"/>
      <point x="202" y="1341"/>
      <point x="211" y="1247" type="curve" smooth="yes"/>
    </contour>
  </outline>
</glyph>
<glyph name="MatraOo.gm" format="2">
  <unicode hex="0A4B"/>
  <anchor x="400" y="1200" name="_top"/>
  <anchor x="670" y="1377" name="top1"/>
  <outline>
    <contour>
      <point x="235" y="1239" type="curve"/>
      <point x="380" y="1239" type="line"/>
      <point x="388" y="1309"/>
      <point x="392" y="1372"/>
      <point x="392" y="1414" type="curve" smooth="yes"/>
      <point x="392" y="1565"/>
      <point x="325" y="1639"/>
      <point x="125" y="1662" type="curve" smooth="yes"/>
      <point x="38" y="1672" type="line" smooth="yes"/>
      <point x="-43" y="1681"/>
      <point x="-80" y="1719"/>
      <point x="-89" y="1809" type="curve"/>
      <point x="-234" y="1809" type="line"/>
      <point x="-239" y="1656" type="line" smooth="yes"/>
      <point x="-245" y="1486"/>
      <point x="-146" y="1412"/>
      <point x="24" y="1394" type="curve" smooth="yes"/>
      <point x="118" y="1384" type="line" smooth="yes"/>
      <point x="197" y="1376"/>
      <point x="231" y="1332"/>
    </contour>
  </outline>
</glyph>
<glyph name="MatraAu.gm" format="2">
  <unicode hex="0A4C"/>
  <anchor x="400" y="1200" name="_top"/>
  <anchor x="832" y="1459" name="top1"/>
  <outline>
    <contour>
      <point x="60" y="1365" type="curve"/>
      <point x="206" y="1365" type="line"/>
      <point x="198" y="1390"/>
      <point x="192" y="1419"/>
      <point x="192" y="1450" type="curve"/>
      <point x="192" y="1503"/>
      <point x="217" y="1533"/>
      <point x="259" y="1533" type="curve"/>
      <point x="303" y="1533"/>
      <point x="326" y="1503"/>
      <point x="326" y="1450" type="curve"/>
      <point x="326" y="1419"/>
      <point x="320" y="1390"/>
      <point x="312" y="1365" type="curve"/>
      <point x="458" y="1365" type="line"/>
      <point x="495" y="1414"/>
      <point x="517" y="1472"/>
      <point x="517" y="1535" type="curve" smooth="yes"/>
      <point x="517" y="1670"/>
      <point x="422" y="1766"/>
      <point x="259" y="1766" type="curve"/>
      <point x="195" y="1766"/>
      <point x="123" y="1742"/>
      <point x="82" y="1679" type="curve"/>
      <point x="82" y="1643" type="line"/>
      <point x="23" y="1611"/>
      <point x="8" y="1553"/>
      <point x="8" y="1504" type="curve"/>
      <point x="8" y="1450"/>
      <point x="26" y="1411"/>
    </contour>
    <contour>
      <point x="-97" y="1545" type="curve" smooth="yes"/>
      <point x="-41" y="1545"/>
      <point x="-1" y="1570"/>
      <point x="24" y="1599" type="curve"/>
      <point x="31" y="1593" type="line"/>
      <point x="252" y="1600" type="line"/>
      <point x="259" y="1766" type="line"/>
      <point x="66" y="1766" type="line"/>
      <point x="-55" y="1766"/>
      <point x="-86" y="1780"/>
      <point x="-99" y="1876" type="curve"/>
      <point x="-244" y="1876" type="line"/>
      <point x="-249" y="1731" type="line" smooth="yes"/>
      <point x="-254" y="1599"/>
      <point x="-182" y="1545"/>
    </contour>
  </outline>
</glyph>
<glyph name="Virama.gm" format="2">
  <unicode hex="0A4D"/>
  <anchor x="600" y="100" name="_bottom"/>
  <outline>
    <contour>
      <point x="368" y="-469" type="line"/>
      <point x="647" y="-473" type="line"/>
      <point x="432" y="-125" type="line"/>
      <point x="121" y="-125" type="line"/>
    </contour>
  </outline>
</glyph>
<glyph name="Udaat.gm" format="2">
  <unicode hex="0A51"/>
  <anchor x="600" y="100" name="_bottom"/>
  <anchor x="600" y="400" name="bottom1"/>
  <outline>
    <contour>
      <point x="602" y="-469" type="curve"/>
      <point x="602" y="-266" type="line"/>
      <point x="479" y="-266"/>
      <point x="420" y="-213"/>
      <point x="420" y="-125" type="curve"/>
      <point x="120" y="-125" type="line"/>
      <point x="120" y="-364"/>
      <point x="253" y="-469"/>
    </contour>
  </outline>
</glyph>
<glyph name="Za.gm" format="2">
  <advance width="1031"/>
  <unicode hex="0A5B"/>
  <anchor x="1131" y="100" name="bottom"/>
  <anchor x="1033" y="100" name="bottom1"/>
  <anchor x="953" y="1200" name="top"/>
  <outline>
    <contour>
      <point x="58" y="0" type="curve"/>
      <point x="358" y="0" type="line"/>
      <point x="377" y="155"/>
      <point x="386" y="341"/>
      <point x="386" y="524" type="curve" smooth="yes"/>
      <point x="386" y="660"/>
      <point x="380" y="795"/>
      <point x="368" y="913" type="curve"/>
      <point x="68" y="873" type="line"/>
      <point x="79" y="757"/>
      <point x="86" y="666"/>
      <point x="86" y="532" type="curve" smooth="yes"/>
      <point x="86" y="347"/>
      <point x="77" y="158"/>
    </contour>
    <contour>
      <point x="244" y="470" type="line"/>
      <point x="801" y="470" type="line"/>
      <point x="801" y="734" type="line"/>
      <point x="244" y="734" type="line"/>
    </contour>
    <contour>
      <point x="22" y="1029" type="line"/>
      <point x="839" y="1029" type="line"/>
      <point x="839" y="1262" type="line"/>
      <point x="22" y="1262" type="line"/>
    </contour>
    <contour>
      <point x="514" y="65" type="curve" smooth="yes"/>
      <point x="574" y="65"/>
      <point x="607" y="105"/>
      <point x="607" y="178" type="curve" smooth="yes"/>
      <point x="607" y="194" type="line" smooth="yes"/>
      <point x="607" y="266"/>
      <point x="574" y="307"/>
      <point x="514" y="307" type="curve" smooth="yes"/>
      <point x="454" y="307"/>
      <point x="422" y="266"/>
      <point x="422" y="194" type="curve" smooth="yes"/>
      <point x="422" y="178" type="line" smooth="yes"/>
      <point x="422" y="105"/>
      <point x="454" y="65"/>
    </contour>
    <component base="_danda" xOffset="467"/>
    <component base="_cap.shiro_left"/>
  </outline>
</glyph>
<glyph name="Rra.gm" format="2">
  <advance width="788"/>
  <unicode hex="0A5C"/>
  <anchor x="759" y="10" name="bottom"/>
  <anchor x="920" y="-10" name="bottom1"/>
  <anchor x="702" y="1200" name="top"/>
  <outline>
    <contour>
      <point x="324" y="22" type="curve" smooth="yes"/>
      <point x="601" y="22"/>
      <point x="714" y="159"/>
      <point x="714" y="348" type="curve" smooth="yes"/>
      <point x="714" y="417" type="line" smooth="yes"/>
      <point x="714" y="586"/>
      <point x="619" y="682"/>
      <point x="381" y="682" type="curve"/>
      <point x="477" y="566" type="line"/>
      <point x="477" y="683" type="line"/>
      <point x="610" y="683"/>
      <point x="700" y="785"/>
      <point x="700" y="923" type="curve" smooth="yes"/>
      <point x="700" y="1152" type="line"/>
      <point x="396" y="1152" type="line"/>
      <point x="396" y="943" type="line" smooth="yes"/>
      <point x="396" y="870"/>
      <point x="360" y="811"/>
      <point x="268" y="811" type="curve" smooth="yes"/>
      <point x="100" y="811" type="line"/>
      <point x="100" y="537" type="line"/>
      <point x="291" y="537" type="line" smooth="yes"/>
      <point x="371" y="537"/>
      <point x="410" y="492"/>
      <point x="410" y="415" type="curve" smooth="yes"/>
      <point x="410" y="384" type="line" smooth="yes"/>
      <point x="410" y="323"/>
      <point x="360" y="277"/>
      <point x="269" y="277" type="curve" smooth="yes"/>
      <point x="193" y="277"/>
      <point x="115" y="302"/>
      <point x="53" y="330" type="curve"/>
      <point x="68" y="72" type="line"/>
      <point x="127" y="45"/>
      <point x="220" y="22"/>
    </contour>
    <contour>
      <point x="160" y="-166" type="line"/>
      <point x="409" y="-166" type="line"/>
      <point x="276" y="110" type="line"/>
      <point x="68" y="72" type="line"/>
    </contour>
    <contour>
      <point x="531" y="-166" type="line"/>
      <point x="780" y="-166" type="line"/>
      <point x="604" y="178" type="line"/>
      <point x="400" y="103" type="line"/>
    </contour>
    <contour>
      <point x="59" y="1029" type="line"/>
      <point x="764" y="1029" type="line"/>
      <point x="764" y="1262" type="line"/>
      <point x="59" y="1262" type="line"/>
    </contour>
    <component base="_cap.shiro_left"/>
    <component base="_cap.shiro_right" xOffset="455"/>
  </outline>
</glyph>
<glyph name="zero.gm" format="2">
  <advance width="894"/>
  <unicode hex="0A66"/>
  <outline>
    <contour>
      <point x="447" y="121" type="curve" smooth="yes"/>
      <point x="695" y="121"/>
      <point x="834" y="272"/>
      <point x="834" y="511" type="curve" smooth="yes"/>
      <point x="834" y="736" type="line" smooth="yes"/>
      <point x="834" y="975"/>
      <point x="689" y="1126"/>
      <point x="447" y="1126" type="curve" smooth="yes"/>
      <point x="199" y="1126"/>
      <point x="60" y="975"/>
      <point x="60" y="736" type="curve" smooth="yes"/>
      <point x="60" y="511" type="line" smooth="yes"/>
      <point x="60" y="272"/>
      <point x="205" y="121"/>
    </contour>
    <contour>
      <point x="447" y="389" type="curve" smooth="yes"/>
      <point x="390" y="389"/>
      <point x="369" y="431"/>
      <point x="369" y="526" type="curve" smooth="yes"/>
      <point x="369" y="721" type="line" smooth="yes"/>
      <point x="369" y="816"/>
      <point x="390" y="858"/>
      <point x="447" y="858" type="curve" smooth="yes"/>
      <point x="504" y="858"/>
      <point x="525" y="816"/>
      <point x="525" y="721" type="curve" smooth="yes"/>
      <point x="525" y="526" type="line" smooth="yes"/>
      <point x="525" y="431"/>
      <point x="504" y="389"/>
    </contour>
  </outline>
</glyph>
<glyph name="one.gm" format="2">
  <advance width="884"/>
  <unicode hex="0A67"/>
  <outline>
    <contour>
      <point x="520" y="0" type="line"/>
      <point x="824" y="0" type="line"/>
      <point x="824" y="853" type="line" smooth="yes"/>
      <point x="824" y="1142"/>
      <point x="696" y="1288"/>
      <point x="442" y="1288" type="curve" smooth="yes"/>
      <point x="192" y="1288"/>
      <point x="60" y="1135"/>
      <point x="60" y="853" type="curve" smooth="yes"/>
      <point x="60" y="788" type="line" smooth="yes"/>
      <point x="60" y="516"/>
      <point x="196" y="424"/>
      <point x="358" y="424" type="curve" smooth="yes"/>
      <point x="392" y="424"/>
      <point x="419" y="427"/>
      <point x="448" y="435" type="curve"/>
      <point x="514" y="631" type="line"/>
      <point x="536" y="631" type="line"/>
      <point x="520" y="712" type="line"/>
      <point x="510" y="696"/>
      <point x="485" y="679"/>
      <point x="450" y="679" type="curve" smooth="yes"/>
      <point x="389" y="679"/>
      <point x="364" y="712"/>
      <point x="364" y="798" type="curve" smooth="yes"/>
      <point x="364" y="908" type="line" smooth="yes"/>
      <point x="364" y="982"/>
      <point x="389" y="1020"/>
      <point x="442" y="1020" type="curve" smooth="yes"/>
      <point x="495" y="1020"/>
      <point x="520" y="982"/>
      <point x="520" y="908" type="curve" smooth="yes"/>
    </contour>
  </outline>
</glyph>
<glyph name="two.gm" format="2">
  <advance width="735"/>
  <unicode hex="0A68"/>
  <outline>
    <contour>
      <point x="278" y="337" type="curve" smooth="yes"/>
      <point x="555" y="337"/>
      <point x="675" y="480"/>
      <point x="675" y="708" type="curve" smooth="yes"/>
      <point x="675" y="877" type="line" smooth="yes"/>
      <point x="675" y="1156"/>
      <point x="539" y="1288"/>
      <point x="304" y="1288" type="curve" smooth="yes"/>
      <point x="218" y="1288"/>
      <point x="130" y="1268"/>
      <point x="67" y="1234" type="curve"/>
      <point x="67" y="969" type="line"/>
      <point x="116" y="999"/>
      <point x="180" y="1016"/>
      <point x="238" y="1016" type="curve" smooth="yes"/>
      <point x="318" y="1016"/>
      <point x="365" y="959"/>
      <point x="365" y="858" type="curve" smooth="yes"/>
      <point x="365" y="766" type="line" smooth="yes"/>
      <point x="365" y="679"/>
      <point x="314" y="620"/>
      <point x="216" y="620" type="curve" smooth="yes"/>
      <point x="147" y="620"/>
      <point x="107" y="627"/>
      <point x="47" y="644" type="curve"/>
      <point x="61" y="380" type="line"/>
      <point x="123" y="361"/>
      <point x="204" y="337"/>
    </contour>
    <contour>
      <point x="293" y="0" type="line"/>
      <point x="667" y="0" type="line"/>
      <point x="588" y="133"/>
      <point x="489" y="250"/>
      <point x="379" y="340" type="curve"/>
      <point x="379" y="529" type="line"/>
      <point x="115" y="407" type="line"/>
    </contour>
  </outline>
</glyph>
<glyph name="three.gm" format="2">
  <advance width="761"/>
  <unicode hex="0A69"/>
  <outline>
    <contour>
      <point x="347" y="54" type="curve" smooth="yes"/>
      <point x="602" y="54"/>
      <point x="701" y="166"/>
      <point x="701" y="358" type="curve" smooth="yes"/>
      <point x="701" y="430" type="line" smooth="yes"/>
      <point x="701" y="590"/>
      <point x="617" y="674"/>
      <point x="430" y="680" type="curve"/>
      <point x="503" y="564" type="line"/>
      <point x="503" y="680" type="line"/>
      <point x="623" y="686"/>
      <point x="695" y="773"/>
      <point x="695" y="930" type="curve" smooth="yes"/>
      <point x="695" y="983" type="line" smooth="yes"/>
      <point x="695" y="1190"/>
      <point x="574" y="1288"/>
      <point x="335" y="1288" type="curve" smooth="yes"/>
      <point x="244" y="1288"/>
      <point x="162" y="1263"/>
      <point x="84" y="1220" type="curve"/>
      <point x="84" y="975" type="line"/>
      <point x="155" y="1010"/>
      <point x="212" y="1024"/>
      <point x="265" y="1024" type="curve" smooth="yes"/>
      <point x="340" y="1024"/>
      <point x="385" y="989"/>
      <point x="385" y="927" type="curve" smooth="yes"/>
      <point x="385" y="906" type="line" smooth="yes"/>
      <point x="385" y="839"/>
      <point x="345" y="800"/>
      <point x="277" y="800" type="curve" smooth="yes"/>
      <point x="121" y="800" type="line"/>
      <point x="121" y="537" type="line"/>
      <point x="277" y="537" type="line" smooth="yes"/>
      <point x="347" y="537"/>
      <point x="391" y="498"/>
      <point x="391" y="431" type="curve" smooth="yes"/>
      <point x="391" y="410" type="line" smooth="yes"/>
      <point x="391" y="346"/>
      <point x="340" y="313"/>
      <point x="265" y="313" type="curve" smooth="yes"/>
      <point x="198" y="313"/>
      <point x="129" y="332"/>
      <point x="50" y="365" type="curve"/>
      <point x="64" y="117" type="line"/>
      <point x="149" y="78"/>
      <point x="236" y="54"/>
    </contour>
    <contour>
      <point x="266" y="-165" type="line"/>
      <point x="648" y="-165" type="line"/>
      <point x="552" y="-60"/>
      <point x="466" y="11"/>
      <point x="407" y="53" type="curve"/>
      <point x="467" y="230" type="line"/>
      <point x="89" y="159" type="line"/>
    </contour>
  </outline>
</glyph>
<glyph name="four.gm" format="2">
  <advance width="904"/>
  <unicode hex="0A6A"/>
  <outline>
    <contour>
      <point x="452" y="-24" type="curve" smooth="yes"/>
      <point x="703" y="-24"/>
      <point x="840" y="113"/>
      <point x="840" y="318" type="curve" smooth="yes"/>
      <point x="840" y="379" type="line" smooth="yes"/>
      <point x="840" y="532"/>
      <point x="766" y="636"/>
      <point x="635" y="672" type="curve"/>
      <point x="635" y="679" type="line"/>
      <point x="774" y="709"/>
      <point x="844" y="813"/>
      <point x="844" y="959" type="curve" smooth="yes"/>
      <point x="844" y="1075"/>
      <point x="837" y="1179"/>
      <point x="824" y="1262" type="curve"/>
      <point x="514" y="1262" type="line"/>
      <point x="527" y="1157"/>
      <point x="534" y="1063"/>
      <point x="534" y="931" type="curve" smooth="yes"/>
      <point x="534" y="848"/>
      <point x="508" y="806"/>
      <point x="454" y="806" type="curve" smooth="yes"/>
      <point x="397" y="806"/>
      <point x="370" y="848"/>
      <point x="370" y="931" type="curve" smooth="yes"/>
      <point x="370" y="1063"/>
      <point x="377" y="1157"/>
      <point x="390" y="1262" type="curve"/>
      <point x="80" y="1262" type="line"/>
      <point x="67" y="1179"/>
      <point x="60" y="1075"/>
      <point x="60" y="959" type="curve" smooth="yes"/>
      <point x="60" y="811"/>
      <point x="121" y="709"/>
      <point x="265" y="675" type="curve"/>
      <point x="265" y="668" type="line"/>
      <point x="130" y="636"/>
      <point x="64" y="539"/>
      <point x="64" y="377" type="curve" smooth="yes"/>
      <point x="64" y="318" type="line" smooth="yes"/>
      <point x="64" y="113"/>
      <point x="201" y="-24"/>
    </contour>
    <contour>
      <point x="452" y="231" type="curve" smooth="yes"/>
      <point x="403" y="231"/>
      <point x="374" y="270"/>
      <point x="374" y="330" type="curve" smooth="yes"/>
      <point x="374" y="432" type="line" smooth="yes"/>
      <point x="374" y="500"/>
      <point x="400" y="541"/>
      <point x="452" y="541" type="curve" smooth="yes"/>
      <point x="503" y="541"/>
      <point x="530" y="499"/>
      <point x="530" y="429" type="curve" smooth="yes"/>
      <point x="530" y="330" type="line" smooth="yes"/>
      <point x="530" y="270"/>
      <point x="503" y="231"/>
    </contour>
  </outline>
</glyph>
<glyph name="five.gm" format="2">
  <advance width="961"/>
  <unicode hex="0A6B"/>
  <outline>
    <contour>
      <point x="414" y="160" type="curve" smooth="yes"/>
      <point x="453" y="160"/>
      <point x="499" y="167"/>
      <point x="523" y="177" type="curve"/>
      <point x="590" y="381" type="line"/>
      <point x="612" y="381" type="line"/>
      <point x="603" y="448" type="line"/>
      <point x="582" y="433"/>
      <point x="548" y="418"/>
      <point x="498" y="418" type="curve" smooth="yes"/>
      <point x="442" y="418"/>
      <point x="395" y="444"/>
      <point x="375" y="488" type="curve"/>
      <point x="405" y="597"/>
      <point x="421" y="785"/>
      <point x="421" y="967" type="curve" smooth="yes"/>
      <point x="421" y="1069"/>
      <point x="418" y="1170"/>
      <point x="410" y="1262" type="curve"/>
      <point x="102" y="1262" type="line"/>
      <point x="109" y="1174"/>
      <point x="112" y="1078"/>
      <point x="112" y="977" type="curve" smooth="yes"/>
      <point x="112" y="679"/>
      <point x="87" y="555"/>
      <point x="46" y="414" type="curve"/>
      <point x="96" y="236"/>
      <point x="242" y="160"/>
    </contour>
    <contour>
      <point x="597" y="0" type="line"/>
      <point x="901" y="0" type="line"/>
      <point x="901" y="1262" type="line"/>
      <point x="597" y="1262" type="line"/>
    </contour>
  </outline>
</glyph>
<glyph name="six.gm" format="2">
  <advance width="793"/>
  <unicode hex="0A6C"/>
  <outline>
    <contour>
      <point x="469" y="-28" type="curve" smooth="yes"/>
      <point x="566" y="-28"/>
      <point x="661" y="-3"/>
      <point x="727" y="40" type="curve"/>
      <point x="741" y="305" type="line"/>
      <point x="664" y="262"/>
      <point x="579" y="237"/>
      <point x="512" y="237" type="curve" smooth="yes"/>
      <point x="421" y="237"/>
      <point x="367" y="285"/>
      <point x="367" y="365" type="curve" smooth="yes"/>
      <point x="367" y="379" type="line" smooth="yes"/>
      <point x="367" y="463"/>
      <point x="416" y="512"/>
      <point x="499" y="512" type="curve" smooth="yes"/>
      <point x="670" y="512" type="line"/>
      <point x="670" y="768" type="line"/>
      <point x="514" y="768" type="line" smooth="yes"/>
      <point x="434" y="768"/>
      <point x="386" y="810"/>
      <point x="386" y="882" type="curve" smooth="yes"/>
      <point x="386" y="896" type="line" smooth="yes"/>
      <point x="386" y="974"/>
      <point x="434" y="1020"/>
      <point x="516" y="1020" type="curve" smooth="yes"/>
      <point x="577" y="1020"/>
      <point x="647" y="1001"/>
      <point x="707" y="969" type="curve"/>
      <point x="707" y="1214" type="line"/>
      <point x="639" y="1257"/>
      <point x="563" y="1282"/>
      <point x="456" y="1282" type="curve" smooth="yes"/>
      <point x="217" y="1282"/>
      <point x="76" y="1158"/>
      <point x="76" y="947" type="curve" smooth="yes"/>
      <point x="76" y="921" type="line" smooth="yes"/>
      <point x="76" y="756"/>
      <point x="162" y="665"/>
      <point x="278" y="646" type="curve"/>
      <point x="278" y="535" type="line"/>
      <point x="308" y="642" type="line"/>
      <point x="162" y="626"/>
      <point x="60" y="552"/>
      <point x="60" y="351" type="curve" smooth="yes"/>
      <point x="60" y="306" type="line" smooth="yes"/>
      <point x="60" y="76"/>
      <point x="225" y="-28"/>
    </contour>
    <contour>
      <point x="743" y="1389" type="curve"/>
      <point x="729" y="1636" type="line"/>
      <point x="697" y="1639"/>
      <point x="666" y="1641"/>
      <point x="648" y="1641" type="curve" smooth="yes"/>
      <point x="483" y="1641"/>
      <point x="385" y="1571"/>
      <point x="385" y="1453" type="curve" smooth="yes"/>
      <point x="385" y="1377"/>
      <point x="433" y="1313"/>
      <point x="505" y="1287" type="curve"/>
      <point x="505" y="1189" type="line"/>
      <point x="707" y="1214" type="line"/>
      <point x="648" y="1247"/>
      <point x="624" y="1282"/>
      <point x="624" y="1323" type="curve" smooth="yes"/>
      <point x="624" y="1365"/>
      <point x="652" y="1393"/>
      <point x="706" y="1393" type="curve" smooth="yes"/>
      <point x="716" y="1393"/>
      <point x="729" y="1392"/>
    </contour>
  </outline>
</glyph>
<glyph name="seven.gm" format="2">
  <advance width="884"/>
  <unicode hex="0A6D"/>
  <outline>
    <contour>
      <point x="96" y="0" type="line"/>
      <point x="102" y="0" type="line" smooth="yes"/>
      <point x="569" y="0"/>
      <point x="824" y="183"/>
      <point x="824" y="639" type="curve" smooth="yes"/>
      <point x="824" y="852" type="line" smooth="yes"/>
      <point x="824" y="1140"/>
      <point x="696" y="1288"/>
      <point x="442" y="1288" type="curve" smooth="yes"/>
      <point x="188" y="1288"/>
      <point x="60" y="1140"/>
      <point x="60" y="852" type="curve" smooth="yes"/>
      <point x="60" y="600" type="line"/>
      <point x="364" y="600" type="line"/>
      <point x="364" y="878" type="line" smooth="yes"/>
      <point x="364" y="979"/>
      <point x="382" y="1021"/>
      <point x="442" y="1021" type="curve" smooth="yes"/>
      <point x="502" y="1021"/>
      <point x="520" y="979"/>
      <point x="520" y="878" type="curve" smooth="yes"/>
      <point x="520" y="637" type="line" smooth="yes"/>
      <point x="520" y="357"/>
      <point x="401" y="272"/>
      <point x="91" y="272" type="curve" smooth="yes"/>
      <point x="82" y="272" type="line"/>
    </contour>
  </outline>
</glyph>
<glyph name="eight.gm" format="2">
  <advance width="788"/>
  <unicode hex="0A6E"/>
  <outline>
    <contour>
      <point x="501" y="-28" type="curve" smooth="yes"/>
      <point x="599" y="-28"/>
      <point x="701" y="7"/>
      <point x="733" y="32" type="curve"/>
      <point x="748" y="280" type="line"/>
      <point x="697" y="249"/>
      <point x="633" y="227"/>
      <point x="561" y="227" type="curve" smooth="yes"/>
      <point x="442" y="227"/>
      <point x="369" y="287"/>
      <point x="369" y="441" type="curve" smooth="yes"/>
      <point x="369" y="1263" type="line"/>
      <point x="60" y="1223" type="line"/>
      <point x="60" y="446" type="line" smooth="yes"/>
      <point x="60" y="122"/>
      <point x="211" y="-28"/>
    </contour>
    <contour>
      <point x="208" y="823" type="line"/>
      <point x="714" y="823" type="line"/>
      <point x="714" y="1075" type="line"/>
      <point x="208" y="1075" type="line"/>
    </contour>
  </outline>
</glyph>
<glyph name="nine.gm" format="2">
  <advance width="788"/>
  <unicode hex="0A6F"/>
  <outline>
    <contour>
      <point x="501" y="-28" type="curve" smooth="yes"/>
      <point x="599" y="-28"/>
      <point x="701" y="7"/>
      <point x="733" y="32" type="curve"/>
      <point x="748" y="280" type="line"/>
      <point x="697" y="249"/>
      <point x="633" y="227"/>
      <point x="561" y="227" type="curve" smooth="yes"/>
      <point x="442" y="227"/>
      <point x="369" y="287"/>
      <point x="369" y="441" type="curve" smooth="yes"/>
      <point x="369" y="1263" type="line"/>
      <point x="60" y="1223" type="line"/>
      <point x="60" y="446" type="line" smooth="yes"/>
      <point x="60" y="122"/>
      <point x="211" y="-28"/>
    </contour>
    <contour>
      <point x="208" y="823" type="line"/>
      <point x="734" y="823" type="line"/>
      <point x="734" y="1075" type="line"/>
      <point x="208" y="1075" type="line"/>
    </contour>
    <contour>
      <point x="587" y="971" type="line"/>
      <point x="734" y="1075" type="line"/>
      <point x="688" y="1094"/>
      <point x="666" y="1121"/>
      <point x="666" y="1158" type="curve" smooth="yes"/>
      <point x="666" y="1198"/>
      <point x="695" y="1226"/>
      <point x="747" y="1226" type="curve" smooth="yes"/>
      <point x="761" y="1226"/>
      <point x="770" y="1225"/>
      <point x="785" y="1222" type="curve"/>
      <point x="770" y="1479" type="line"/>
      <point x="746" y="1482"/>
      <point x="717" y="1484"/>
      <point x="693" y="1484" type="curve" smooth="yes"/>
      <point x="516" y="1484"/>
      <point x="444" y="1384"/>
      <point x="444" y="1279" type="curve" smooth="yes"/>
      <point x="444" y="1179"/>
      <point x="501" y="1112"/>
      <point x="587" y="1082" type="curve"/>
    </contour>
  </outline>
</glyph>
<glyph name="Tippi.gm" format="2">
  <unicode hex="0A70"/>
  <anchor x="400" y="1200" name="_top"/>
  <outline>
    <contour>
      <point x="50" y="1355" type="curve"/>
      <point x="196" y="1355" type="line"/>
      <point x="188" y="1380"/>
      <point x="182" y="1409"/>
      <point x="182" y="1440" type="curve" smooth="yes"/>
      <point x="182" y="1493"/>
      <point x="210" y="1523"/>
      <point x="264" y="1523" type="curve" smooth="yes"/>
      <point x="318" y="1523"/>
      <point x="346" y="1493"/>
      <point x="346" y="1440" type="curve" smooth="yes"/>
      <point x="346" y="1409"/>
      <point x="340" y="1380"/>
      <point x="332" y="1355" type="curve"/>
      <point x="478" y="1355" type="line"/>
      <point x="515" y="1404"/>
      <point x="537" y="1462"/>
      <point x="537" y="1525" type="curve" smooth="yes"/>
      <point x="537" y="1660"/>
      <point x="436" y="1756"/>
      <point x="264" y="1756" type="curve" smooth="yes"/>
      <point x="92" y="1756"/>
      <point x="-9" y="1660"/>
      <point x="-9" y="1525" type="curve" smooth="yes"/>
      <point x="-9" y="1462"/>
      <point x="13" y="1404"/>
    </contour>
  </outline>
</glyph>
<glyph name="Ura.gm" format="2">
  <advance width="956"/>
  <unicode hex="0A73"/>
  <anchor x="1218" y="1373" name="top1"/>
  <outline>
    <contour>
      <point x="492" y="-24" type="curve" smooth="yes"/>
      <point x="772" y="-24"/>
      <point x="897" y="136"/>
      <point x="897" y="366" type="curve" smooth="yes"/>
      <point x="897" y="386" type="line" smooth="yes"/>
      <point x="897" y="502"/>
      <point x="853" y="662"/>
      <point x="551" y="659" type="curve"/>
      <point x="643" y="541" type="line"/>
      <point x="643" y="664" type="line"/>
      <point x="853" y="664"/>
      <point x="908" y="824"/>
      <point x="908" y="986" type="curve" smooth="yes"/>
      <point x="908" y="1159" type="line"/>
      <point x="605" y="1159" type="line"/>
      <point x="605" y="948" type="line" smooth="yes"/>
      <point x="605" y="795"/>
      <point x="537" y="771"/>
      <point x="446" y="771" type="curve" smooth="yes"/>
      <point x="248" y="771" type="line"/>
      <point x="248" y="513" type="line"/>
      <point x="483" y="513" type="line" smooth="yes"/>
      <point x="546" y="513"/>
      <point x="586" y="475"/>
      <point x="586" y="408" type="curve" smooth="yes"/>
      <point x="586" y="377" type="line" smooth="yes"/>
      <point x="586" y="286"/>
      <point x="559" y="231"/>
      <point x="485" y="231" type="curve" smooth="yes"/>
      <point x="413" y="231"/>
      <point x="377" y="288"/>
      <point x="377" y="408" type="curve"/>
      <point x="377" y="1310" type="line"/>
      <point x="377" y="1433"/>
      <point x="408" y="1487"/>
      <point x="492" y="1487" type="curve" smooth="yes"/>
      <point x="579" y="1487"/>
      <point x="605" y="1435"/>
      <point x="605" y="1310" type="curve" smooth="yes"/>
      <point x="605" y="1235" type="line"/>
      <point x="682" y="1257" type="line"/>
      <point x="682" y="1266" type="line"/>
      <point x="908" y="1328" type="line"/>
      <point x="908" y="1330" type="line" smooth="yes"/>
      <point x="908" y="1614"/>
      <point x="747" y="1737"/>
      <point x="492" y="1737" type="curve" smooth="yes"/>
      <point x="216" y="1737"/>
      <point x="73" y="1577"/>
      <point x="73" y="1273" type="curve"/>
      <point x="73" y="415" type="line"/>
      <point x="73" y="134"/>
      <point x="222" y="-24"/>
    </contour>
    <contour>
      <point x="51" y="1029" type="line"/>
      <point x="205" y="1029" type="line"/>
      <point x="224" y="1029" type="line"/>
      <point x="744" y="1029" type="line"/>
      <point x="766" y="1029" type="line"/>
      <point x="934" y="1029" type="line"/>
      <point x="934" y="1262" type="line"/>
      <point x="51" y="1262" type="line"/>
    </contour>
    <component base="_cap.shiro_left"/>
    <component base="_cap.shiro_right" xOffset="623"/>
  </outline>
</glyph>
<glyph name="EkOnkar.gm" format="2">
  <advance width="1856"/>
  <unicode hex="0A74"/>
  <outline>
    <contour>
      <point x="1370" y="-24" type="curve" smooth="yes"/>
      <point x="1650" y="-24"/>
      <point x="1775" y="136"/>
      <point x="1775" y="366" type="curve" smooth="yes"/>
      <point x="1775" y="386" type="line" smooth="yes"/>
      <point x="1775" y="502"/>
      <point x="1731" y="660"/>
      <point x="1429" y="660" type="curve"/>
      <point x="1521" y="541" type="line"/>
      <point x="1521" y="662" type="line"/>
      <point x="1731" y="662"/>
      <point x="1786" y="824"/>
      <point x="1786" y="986" type="curve" smooth="yes"/>
      <point x="1786" y="1129" type="line"/>
      <point x="1483" y="1129" type="line"/>
      <point x="1483" y="948" type="line" smooth="yes"/>
      <point x="1483" y="795"/>
      <point x="1415" y="771"/>
      <point x="1324" y="771" type="curve" smooth="yes"/>
      <point x="1116" y="771" type="line"/>
      <point x="1116" y="513" type="line"/>
      <point x="1361" y="513" type="line" smooth="yes"/>
      <point x="1424" y="513"/>
      <point x="1464" y="475"/>
      <point x="1464" y="408" type="curve" smooth="yes"/>
      <point x="1464" y="377" type="line" smooth="yes"/>
      <point x="1464" y="286"/>
      <point x="1437" y="231"/>
      <point x="1363" y="231" type="curve" smooth="yes"/>
      <point x="1291" y="231"/>
      <point x="1255" y="288"/>
      <point x="1255" y="408" type="curve" smooth="yes"/>
      <point x="1255" y="1200" type="line" smooth="yes"/>
      <point x="1255" y="1398"/>
      <point x="1334" y="1465"/>
      <point x="1486" y="1465" type="curve" smooth="yes"/>
      <point x="1549" y="1465"/>
      <point x="1611" y="1458"/>
      <point x="1694" y="1440" type="curve"/>
      <point x="1680" y="1689" type="line"/>
      <point x="1618" y="1705"/>
      <point x="1540" y="1719"/>
      <point x="1454" y="1719" type="curve" smooth="yes"/>
      <point x="1130" y="1719"/>
      <point x="951" y="1568"/>
      <point x="951" y="1211" type="curve" smooth="yes"/>
      <point x="951" y="415" type="line" smooth="yes"/>
      <point x="951" y="134"/>
      <point x="1100" y="-24"/>
    </contour>
    <contour>
      <point x="1108" y="1029" type="line"/>
      <point x="1123" y="1029" type="line"/>
      <point x="1141" y="1029" type="line"/>
      <point x="1639" y="1029" type="line"/>
      <point x="1656" y="1029" type="line"/>
      <point x="1827" y="1029" type="line"/>
      <point x="1827" y="1262" type="line"/>
      <point x="1108" y="1262" type="line"/>
    </contour>
    <contour>
      <point x="1694" y="1440" type="line"/>
      <point x="1694" y="1514" type="line" smooth="yes"/>
      <point x="1694" y="1672"/>
      <point x="1766" y="1739"/>
      <point x="1905" y="1739" type="curve" smooth="yes"/>
      <point x="1956" y="1739"/>
      <point x="2017" y="1729"/>
      <point x="2073" y="1714" type="curve"/>
      <point x="2059" y="1963" type="line"/>
      <point x="2009" y="1979"/>
      <point x="1938" y="1993"/>
      <point x="1863" y="1993" type="curve" smooth="yes"/>
      <point x="1558" y="1993"/>
      <point x="1390" y="1842"/>
      <point x="1390" y="1525" type="curve" smooth="yes"/>
      <point x="1390" y="1511" type="line"/>
    </contour>
    <component base="one.gm"/>
    <component base="_cap.shiro_right" xOffset="1523"/>
  </outline>
</glyph>
<glyph name="Yakash.gm" format="2">
  <unicode hex="0A75"/>
  <anchor x="600" y="100" name="_bottom"/>
  <anchor x="600" y="400" name="bottom1"/>
  <outline>
    <contour>
      <point x="473" y="-497" type="curve" smooth="yes"/>
      <point x="704" y="-497"/>
      <point x="803" y="-373"/>
      <point x="803" y="-195" type="curve"/>
      <point x="564" y="-195" type="line"/>
      <point x="564" y="-253"/>
      <point x="540" y="-284"/>
      <point x="492" y="-284" type="curve" smooth="yes"/>
      <point x="443" y="-284"/>
      <point x="420" y="-253"/>
      <point x="420" y="-203" type="curve" smooth="yes"/>
      <point x="420" y="18" type="line"/>
      <point x="120" y="18" type="line"/>
      <point x="120" y="-203" type="line" smooth="yes"/>
      <point x="120" y="-376"/>
      <point x="219" y="-497"/>
    </contour>
  </outline>
</glyph>
<glyph name="Khanda.gm" format="2">
  <advance width="1772"/>
  <unicode hex="262C"/>
  <outline>
    <contour>
      <point x="799" y="2" type="line"/>
      <point x="972" y="2" type="line"/>
      <point x="926" y="199" type="line"/>
      <point x="1104" y="59" type="line"/>
      <point x="1216" y="155" type="line"/>
      <point x="966" y="258" type="line"/>
      <point x="1185" y="258"/>
      <point x="1588" y="429"/>
      <point x="1588" y="828" type="curve" smooth="yes"/>
      <point x="1588" y="1040"/>
      <point x="1461" y="1189"/>
      <point x="1284" y="1203" type="curve"/>
      <point x="1341" y="1133"/>
      <point x="1386" y="1036"/>
      <point x="1386" y="881" type="curve" smooth="yes"/>
      <point x="1386" y="499"/>
      <point x="1100" y="361"/>
      <point x="922" y="344" type="curve"/>
      <point x="922" y="407" type="line"/>
      <point x="1038" y="477" type="line"/>
      <point x="990" y="609"/>
      <point x="968" y="745"/>
      <point x="968" y="881" type="curve" smooth="yes"/>
      <point x="968" y="1025"/>
      <point x="994" y="1168"/>
      <point x="1045" y="1308" type="curve"/>
      <point x="892" y="1457" type="line"/>
      <point x="732" y="1308" type="line"/>
      <point x="786" y="1168"/>
      <point x="815" y="1023"/>
      <point x="815" y="878" type="curve" smooth="yes"/>
      <point x="815" y="742"/>
      <point x="793" y="607"/>
      <point x="743" y="477" type="curve"/>
      <point x="846" y="412" type="line"/>
      <point x="846" y="344" type="line"/>
      <point x="668" y="361"/>
      <point x="386" y="499"/>
      <point x="386" y="881" type="curve" smooth="yes"/>
      <point x="386" y="1036"/>
      <point x="431" y="1133"/>
      <point x="488" y="1203" type="curve"/>
      <point x="311" y="1189"/>
      <point x="184" y="1040"/>
      <point x="184" y="828" type="curve" smooth="yes"/>
      <point x="184" y="429"/>
      <point x="583" y="258"/>
      <point x="802" y="258" type="curve"/>
      <point x="554" y="155" type="line"/>
      <point x="666" y="59" type="line"/>
      <point x="843" y="199" type="line"/>
    </contour>
    <contour>
      <point x="891" y="537" type="curve" smooth="yes"/>
      <point x="1128" y="537"/>
      <point x="1281" y="675"/>
      <point x="1281" y="896" type="curve" smooth="yes"/>
      <point x="1281" y="1119"/>
      <point x="1128" y="1255"/>
      <point x="891" y="1255" type="curve" smooth="yes"/>
      <point x="651" y="1255"/>
      <point x="499" y="1119"/>
      <point x="499" y="896" type="curve" smooth="yes"/>
      <point x="499" y="675"/>
      <point x="651" y="537"/>
    </contour>
    <contour>
      <point x="891" y="581" type="curve" smooth="yes"/>
      <point x="725" y="581"/>
      <point x="650" y="692"/>
      <point x="650" y="896" type="curve" smooth="yes"/>
      <point x="650" y="1100"/>
      <point x="725" y="1209"/>
      <point x="891" y="1209" type="curve" smooth="yes"/>
      <point x="1054" y="1209"/>
      <point x="1130" y="1100"/>
      <point x="1130" y="896" type="curve" smooth="yes"/>
      <point x="1130" y="692"/>
      <point x="1054" y="581"/>
    </contour>
  </outline>
</glyph>
<glyph name="Addak.gm.alt" format="2">
  <anchor x="400" y="1200" name="_top1"/>
  <outline>
    <contour>
      <point x="191" y="1392" type="curve" smooth="yes"/>
      <point x="314" y="1392"/>
      <point x="378" y="1485"/>
      <point x="354" y="1650" type="curve"/>
      <point x="250" y="1650" type="line"/>
      <point x="247" y="1583"/>
      <point x="225" y="1550"/>
      <point x="186" y="1550" type="curve" smooth="yes"/>
      <point x="146" y="1550"/>
      <point x="124" y="1586"/>
      <point x="122" y="1650" type="curve"/>
      <point x="18" y="1650" type="line"/>
      <point x="-6" y="1485"/>
      <point x="57" y="1392"/>
    </contour>
  </outline>
</glyph>
<glyph name="AddakBindi.gm.alt" format="2">
  <anchor x="400" y="1200" name="_top1"/>
  <outline>
    <contour>
      <point x="190" y="1403" type="curve" smooth="yes"/>
      <point x="315" y="1403"/>
      <point x="377" y="1486"/>
      <point x="355" y="1641" type="curve"/>
      <point x="269" y="1641" type="line"/>
      <point x="266" y="1567"/>
      <point x="236" y="1531"/>
      <point x="185" y="1531" type="curve" smooth="yes"/>
      <point x="133" y="1531"/>
      <point x="104" y="1567"/>
      <point x="101" y="1641" type="curve"/>
      <point x="15" y="1641" type="line"/>
      <point x="-6" y="1486"/>
      <point x="59" y="1403"/>
    </contour>
    <contour>
      <point x="187" y="1577" type="curve" smooth="yes"/>
      <point x="223" y="1577"/>
      <point x="241" y="1599"/>
      <point x="241" y="1636" type="curve" smooth="yes"/>
      <point x="241" y="1640" type="line" smooth="yes"/>
      <point x="241" y="1677"/>
      <point x="223" y="1699"/>
      <point x="187" y="1699" type="curve" smooth="yes"/>
      <point x="150" y="1699"/>
      <point x="133" y="1677"/>
      <point x="133" y="1640" type="curve" smooth="yes"/>
      <point x="133" y="1636" type="line" smooth="yes"/>
      <point x="133" y="1599"/>
      <point x="150" y="1577"/>
    </contour>
  </outline>
</glyph>
<glyph name="AddakBindiDist.gm" format="2">
  <anchor x="240" y="1200" name="_top"/>
  <outline>
    <contour>
      <point x="270" y="1640" type="curve" smooth="yes"/>
      <point x="327" y="1640"/>
      <point x="355" y="1675"/>
      <point x="355" y="1733" type="curve" smooth="yes"/>
      <point x="355" y="1739" type="line" smooth="yes"/>
      <point x="355" y="1797"/>
      <point x="327" y="1832"/>
      <point x="270" y="1832" type="curve" smooth="yes"/>
      <point x="212" y="1832"/>
      <point x="185" y="1797"/>
      <point x="185" y="1739" type="curve" smooth="yes"/>
      <point x="185" y="1733" type="line" smooth="yes"/>
      <point x="185" y="1675"/>
      <point x="212" y="1640"/>
    </contour>
    <contour>
      <point x="274" y="1352" type="curve" smooth="yes"/>
      <point x="470" y="1352"/>
      <point x="554" y="1478"/>
      <point x="535" y="1715" type="curve"/>
      <point x="394" y="1715" type="line"/>
      <point x="384" y="1628"/>
      <point x="345" y="1585"/>
      <point x="268" y="1585" type="curve" smooth="yes"/>
      <point x="191" y="1585"/>
      <point x="152" y="1628"/>
      <point x="142" y="1715" type="curve"/>
      <point x="2" y="1715" type="line"/>
      <point x="-18" y="1478"/>
      <point x="71" y="1352"/>
    </contour>
  </outline>
</glyph>
<glyph name="AddakDist.gm" format="2">
  <anchor x="240" y="1200" name="_top"/>
  <outline>
    <contour>
      <point x="274" y="1352" type="curve" smooth="yes"/>
      <point x="470" y="1352"/>
      <point x="554" y="1478"/>
      <point x="535" y="1715" type="curve"/>
      <point x="394" y="1715" type="line"/>
      <point x="384" y="1628"/>
      <point x="345" y="1585"/>
      <point x="268" y="1585" type="curve" smooth="yes"/>
      <point x="191" y="1585"/>
      <point x="152" y="1628"/>
      <point x="142" y="1715" type="curve"/>
      <point x="2" y="1715" type="line"/>
      <point x="-18" y="1478"/>
      <point x="71" y="1352"/>
    </contour>
  </outline>
</glyph>
<glyph name="AddhaMa.gm" format="2">
  <advance width="918"/>
  <anchor x="950" y="100" name="bottom1"/>
  <anchor x="860" y="1200" name="top"/>
  <outline>
    <contour>
      <point x="38" y="386" type="line"/>
      <point x="618" y="386" type="line"/>
      <point x="618" y="644" type="line"/>
      <point x="38" y="644" type="line"/>
    </contour>
    <component base="_danda" xOffset="354"/>
  </outline>
</glyph>
<glyph name="AddhaTha.gm" format="2">
  <advance width="918"/>
  <anchor x="970" y="100" name="bottom1"/>
  <anchor x="860" y="1200" name="top"/>
  <outline>
    <contour>
      <point x="300" y="163" type="curve" smooth="yes"/>
      <point x="391" y="163"/>
      <point x="483" y="181"/>
      <point x="547" y="212" type="curve"/>
      <point x="547" y="470" type="line"/>
      <point x="483" y="439"/>
      <point x="391" y="421"/>
      <point x="300" y="421" type="curve" smooth="yes"/>
      <point x="208" y="421"/>
      <point x="110" y="439"/>
      <point x="38" y="470" type="curve"/>
      <point x="38" y="212" type="line"/>
      <point x="110" y="181"/>
      <point x="208" y="163"/>
    </contour>
    <contour>
      <point x="47" y="1029" type="line"/>
      <point x="844" y="1029" type="line"/>
      <point x="844" y="1262" type="line"/>
      <point x="47" y="1262" type="line"/>
    </contour>
    <component base="_danda" xOffset="354"/>
    <component base="_cap.shiro_left"/>
  </outline>
</glyph>
<glyph name="AddhaYa.gm" format="2">
  <advance width="1077"/>
  <anchor x="1050" y="100" name="bottom1"/>
  <anchor x="1019" y="1200" name="top"/>
  <outline>
    <contour>
      <point x="308" y="117" type="curve" smooth="yes"/>
      <point x="426" y="117"/>
      <point x="531" y="144"/>
      <point x="594" y="184" type="curve"/>
      <point x="594" y="576" type="line"/>
      <point x="769" y="576" type="line"/>
      <point x="769" y="841" type="line"/>
      <point x="303" y="841" type="line"/>
      <point x="303" y="304" type="line"/>
      <point x="366" y="398" type="line"/>
      <point x="342" y="382"/>
      <point x="303" y="375"/>
      <point x="258" y="375" type="curve" smooth="yes"/>
      <point x="181" y="375"/>
      <point x="104" y="390"/>
      <point x="50" y="415" type="curve"/>
      <point x="50" y="157" type="line"/>
      <point x="128" y="130"/>
      <point x="224" y="117"/>
    </contour>
    <contour>
      <point x="17" y="1029" type="line"/>
      <point x="953" y="1029" type="line"/>
      <point x="953" y="1262" type="line"/>
      <point x="17" y="1262" type="line"/>
    </contour>
    <component base="_danda" xOffset="513"/>
    <component base="_cap.shiro_left"/>
  </outline>
</glyph>
<glyph name="Bindi.gm.alt" format="2">
  <anchor x="400" y="1200" name="_top1"/>
  <outline>
    <contour>
      <point x="120" y="1461" type="curve" smooth="yes"/>
      <point x="207" y="1461"/>
      <point x="249" y="1513"/>
      <point x="249" y="1602" type="curve" smooth="yes"/>
      <point x="249" y="1610" type="line" smooth="yes"/>
      <point x="249" y="1699"/>
      <point x="207" y="1752"/>
      <point x="120" y="1752" type="curve" smooth="yes"/>
      <point x="32" y="1752"/>
      <point x="-8" y="1699"/>
      <point x="-8" y="1610" type="curve" smooth="yes"/>
      <point x="-8" y="1602" type="line" smooth="yes"/>
      <point x="-8" y="1513"/>
      <point x="32" y="1461"/>
    </contour>
  </outline>
</glyph>
<glyph name="KaViramaRa.gm" format="2">
  <advance width="990"/>
  <anchor x="922" y="-240" name="bottom"/>
  <anchor x="1044" y="-286" name="bottom1"/>
  <anchor x="952" y="1200" name="top"/>
  <outline>
    <contour>
      <point x="320" y="-349" type="line"/>
      <point x="779" y="-349" type="line"/>
      <point x="891" y="-183" type="line"/>
      <point x="916" y="-102"/>
      <point x="921" y="-20"/>
      <point x="921" y="50" type="curve"/>
      <point x="921" y="114" type="line"/>
      <point x="921" y="382"/>
      <point x="857" y="511"/>
      <point x="738" y="616" type="curve"/>
      <point x="644" y="725" type="line"/>
      <point x="587" y="845"/>
      <point x="506" y="897"/>
      <point x="362" y="897" type="curve" smooth="yes"/>
      <point x="168" y="897"/>
      <point x="53" y="767"/>
      <point x="53" y="548" type="curve"/>
      <point x="53" y="524" type="line"/>
      <point x="53" y="313"/>
      <point x="177" y="189"/>
      <point x="386" y="189" type="curve" smooth="yes"/>
      <point x="497" y="189"/>
      <point x="610" y="247"/>
      <point x="661" y="371" type="curve"/>
      <point x="740" y="478" type="line"/>
      <point x="876" y="637"/>
      <point x="914" y="797"/>
      <point x="924" y="1016" type="curve" smooth="yes"/>
      <point x="930" y="1152" type="line"/>
      <point x="618" y="1148" type="line"/>
      <point x="614" y="1026" type="line" smooth="yes"/>
      <point x="610" y="892"/>
      <point x="581" y="776"/>
      <point x="543" y="710" type="curve"/>
      <point x="559" y="545" type="line"/>
      <point x="532" y="492"/>
      <point x="497" y="450"/>
      <point x="445" y="450" type="curve" smooth="yes"/>
      <point x="393" y="450"/>
      <point x="366" y="479"/>
      <point x="366" y="535" type="curve"/>
      <point x="366" y="550" type="line"/>
      <point x="366" y="607"/>
      <point x="393" y="637"/>
      <point x="445" y="637" type="curve" smooth="yes"/>
      <point x="491" y="637"/>
      <point x="532" y="598"/>
      <point x="559" y="545" type="curve"/>
      <point x="578" y="392" type="line"/>
      <point x="590" y="362"/>
      <point x="621" y="277"/>
      <point x="621" y="112" type="curve"/>
      <point x="621" y="58" type="line"/>
      <point x="621" y="-11"/>
      <point x="619" y="-81"/>
      <point x="613" y="-139" type="curve"/>
      <point x="660" y="-79" type="line"/>
      <point x="335" y="-79" type="line"/>
    </contour>
    <contour>
      <point x="1108" y="-583" type="curve"/>
      <point x="1094" y="-298" type="line"/>
      <point x="1009" y="-233"/>
      <point x="826" y="-136"/>
      <point x="724" y="-105" type="curve"/>
      <point x="583" y="-279" type="line"/>
      <point x="709" y="-329"/>
      <point x="1014" y="-514"/>
    </contour>
    <contour>
      <point x="18" y="1029" type="line"/>
      <point x="990" y="1029" type="line"/>
      <point x="990" y="1262" type="line"/>
      <point x="18" y="1262" type="line"/>
    </contour>
    <component base="_cap.shiro_left"/>
    <component base="_cap.shiro_right" xOffset="657"/>
  </outline>
</glyph>
<glyph name="LaHa.gm" format="2">
  <advance width="1118"/>
  <anchor x="1130" y="-569" name="bottom1"/>
  <anchor x="966" y="1200" name="top"/>
  <outline>
    <contour>
      <point x="564" y="328" type="curve"/>
      <point x="753" y="460"/>
      <point x="964" y="744"/>
      <point x="964" y="1099" type="curve"/>
      <point x="964" y="1118" type="line"/>
      <point x="660" y="1118" type="line"/>
      <point x="660" y="1059" type="line"/>
      <point x="660" y="916"/>
      <point x="629" y="766"/>
      <point x="564" y="668" type="curve"/>
      <point x="489" y="758"/>
      <point x="457" y="922"/>
      <point x="457" y="1059" type="curve"/>
      <point x="457" y="1118" type="line"/>
      <point x="154" y="1118" type="line"/>
      <point x="154" y="1099" type="line"/>
      <point x="154" y="734"/>
      <point x="364" y="459"/>
    </contour>
    <contour>
      <point x="171" y="0" type="curve"/>
      <point x="445" y="0" type="line"/>
      <point x="465" y="0" type="line"/>
      <point x="391" y="127"/>
      <point x="373" y="210"/>
      <point x="373" y="364" type="curve" smooth="yes"/>
      <point x="373" y="383" type="line" smooth="yes"/>
      <point x="373" y="432"/>
      <point x="373" y="500"/>
      <point x="402" y="550" type="curve"/>
      <point x="312" y="822" type="line"/>
      <point x="135" y="764"/>
      <point x="70" y="604"/>
      <point x="70" y="414" type="curve" smooth="yes"/>
      <point x="70" y="359" type="line" smooth="yes"/>
      <point x="70" y="201"/>
      <point x="108" y="77"/>
    </contour>
    <contour>
      <point x="956" y="0" type="line"/>
      <point x="1030" y="101"/>
      <point x="1048" y="204"/>
      <point x="1048" y="346" type="curve" smooth="yes"/>
      <point x="1048" y="411" type="line" smooth="yes"/>
      <point x="1048" y="617"/>
      <point x="973" y="764"/>
      <point x="793" y="822" type="curve"/>
      <point x="703" y="550" type="line"/>
      <point x="736" y="500"/>
      <point x="745" y="432"/>
      <point x="745" y="383" type="curve" smooth="yes"/>
      <point x="745" y="364" type="line" smooth="yes"/>
      <point x="745" y="195"/>
      <point x="722" y="118"/>
      <point x="660" y="0" type="curve"/>
      <point x="684" y="0" type="line"/>
    </contour>
    <contour>
      <point x="32" y="1029" type="line"/>
      <point x="1063" y="1029" type="line"/>
      <point x="1063" y="1262" type="line"/>
      <point x="32" y="1262" type="line"/>
    </contour>
    <contour>
      <point x="615" y="-725" type="curve" smooth="yes"/>
      <point x="841" y="-725"/>
      <point x="956" y="-616"/>
      <point x="956" y="-410" type="curve" smooth="yes"/>
      <point x="956" y="0" type="line"/>
      <point x="660" y="0" type="line"/>
      <point x="660" y="-444" type="line" smooth="yes"/>
      <point x="660" y="-492"/>
      <point x="636" y="-515"/>
      <point x="604" y="-515" type="curve" smooth="yes"/>
      <point x="552" y="-515"/>
      <point x="522" y="-469"/>
      <point x="522" y="-390" type="curve" smooth="yes"/>
      <point x="522" y="-382" type="line" smooth="yes"/>
      <point x="522" y="-319"/>
      <point x="543" y="-291"/>
      <point x="590" y="-291" type="curve" smooth="yes"/>
      <point x="599" y="-291" type="line"/>
      <point x="599" y="-79" type="line"/>
      <point x="553" y="-79" type="line" smooth="yes"/>
      <point x="359" y="-79"/>
      <point x="261" y="-180"/>
      <point x="261" y="-376" type="curve" smooth="yes"/>
      <point x="261" y="-385" type="line" smooth="yes"/>
      <point x="261" y="-571"/>
      <point x="377" y="-725"/>
    </contour>
    <component base="_cap.shiro_left"/>
    <component base="_cap.shiro_right" xOffset="785"/>
  </outline>
</glyph>
<glyph name="MatraAi.gm.alt" format="2">
  <anchor x="400" y="1200" name="_top"/>
  <anchor x="745" y="1395" name="top1"/>
  <outline>
    <contour>
      <point x="286" y="1225" type="line"/>
      <point x="392" y="1225" type="line"/>
      <point x="385" y="1382" type="line" smooth="yes"/>
      <point x="368" y="1757"/>
      <point x="226" y="1875"/>
      <point x="-28" y="1875" type="curve" smooth="yes"/>
      <point x="-68" y="1875"/>
      <point x="-119" y="1872"/>
      <point x="-178" y="1863" type="curve"/>
      <point x="-193" y="1647" type="line"/>
      <point x="-142" y="1656"/>
      <point x="-86" y="1662"/>
      <point x="-41" y="1662" type="curve" smooth="yes"/>
      <point x="149" y="1662"/>
      <point x="225" y="1565"/>
      <point x="257" y="1417" type="curve"/>
      <point x="244" y="1412" type="line"/>
    </contour>
    <contour>
      <point x="214" y="1225" type="line"/>
      <point x="293" y="1225" type="line"/>
      <point x="280" y="1309" type="line" smooth="yes"/>
      <point x="249" y="1511"/>
      <point x="129" y="1575"/>
      <point x="-17" y="1575" type="curve" smooth="yes"/>
      <point x="-60" y="1575"/>
      <point x="-96" y="1572"/>
      <point x="-138" y="1565" type="curve"/>
      <point x="-152" y="1352" type="line"/>
      <point x="-81" y="1361"/>
      <point x="-66" y="1362"/>
      <point x="-8" y="1362" type="curve" smooth="yes"/>
      <point x="119" y="1362"/>
      <point x="203" y="1342"/>
      <point x="212" y="1247" type="curve" smooth="yes"/>
    </contour>
  </outline>
</glyph>
<glyph name="MatraAu.gm.alt" format="2">
  <anchor x="400" y="1200" name="_top"/>
  <anchor x="809" y="1459" name="top1"/>
  <outline>
    <contour>
      <point x="129" y="1365" type="curve"/>
      <point x="250" y="1365" type="line"/>
      <point x="242" y="1388"/>
      <point x="237" y="1415"/>
      <point x="237" y="1444" type="curve"/>
      <point x="237" y="1493"/>
      <point x="260" y="1521"/>
      <point x="294" y="1521" type="curve"/>
      <point x="331" y="1521"/>
      <point x="351" y="1493"/>
      <point x="351" y="1444" type="curve"/>
      <point x="351" y="1415"/>
      <point x="345" y="1388"/>
      <point x="338" y="1365" type="curve"/>
      <point x="458" y="1365" type="line"/>
      <point x="493" y="1411"/>
      <point x="513" y="1464"/>
      <point x="513" y="1523" type="curve" smooth="yes"/>
      <point x="513" y="1648"/>
      <point x="433" y="1738"/>
      <point x="294" y="1738" type="curve"/>
      <point x="246" y="1738"/>
      <point x="187" y="1715"/>
      <point x="150" y="1657" type="curve"/>
      <point x="150" y="1623" type="line"/>
      <point x="95" y="1594"/>
      <point x="81" y="1540"/>
      <point x="81" y="1494" type="curve"/>
      <point x="81" y="1444"/>
      <point x="98" y="1408"/>
    </contour>
    <contour>
      <point x="-7" y="1532" type="curve" smooth="yes"/>
      <point x="40" y="1532"/>
      <point x="74" y="1555"/>
      <point x="96" y="1582" type="curve"/>
      <point x="102" y="1577" type="line"/>
      <point x="287" y="1583" type="line"/>
      <point x="294" y="1738" type="line"/>
      <point x="135" y="1738" type="line"/>
      <point x="29" y="1738"/>
      <point x="3" y="1751"/>
      <point x="-9" y="1840" type="curve"/>
      <point x="-138" y="1840" type="line"/>
      <point x="-141" y="1681" type="line" smooth="yes"/>
      <point x="-143" y="1587"/>
      <point x="-93" y="1532"/>
    </contour>
  </outline>
</glyph>
<glyph name="MatraEeTa.gm" format="2">
  <anchor x="400" y="1200" name="_top"/>
  <anchor x="688" y="1373" name="top1"/>
  <outline>
    <contour>
      <point x="236" y="1229" type="line"/>
      <point x="388" y="1229" type="line"/>
      <point x="396" y="1643"/>
      <point x="262" y="1753"/>
      <point x="24" y="1753" type="curve" smooth="yes"/>
      <point x="-13" y="1753"/>
      <point x="-50" y="1748"/>
      <point x="-81" y="1741" type="curve"/>
      <point x="-93" y="1470" type="line"/>
      <point x="-49" y="1481"/>
      <point x="-22" y="1483"/>
      <point x="20" y="1483" type="curve" smooth="yes"/>
      <point x="130" y="1483"/>
      <point x="236" y="1430"/>
      <point x="236" y="1233" type="curve" smooth="yes"/>
    </contour>
  </outline>
</glyph>
<glyph name="MatraIiBindi.gm" format="2">
  <advance width="460"/>
  <anchor x="688" y="1373" name="top1"/>
  <outline>
    <contour>
      <point x="408" y="1634" type="curve" smooth="yes"/>
      <point x="495" y="1634"/>
      <point x="537" y="1686"/>
      <point x="537" y="1775" type="curve" smooth="yes"/>
      <point x="537" y="1783" type="line" smooth="yes"/>
      <point x="537" y="1872"/>
      <point x="495" y="1925"/>
      <point x="408" y="1925" type="curve" smooth="yes"/>
      <point x="320" y="1925"/>
      <point x="280" y="1872"/>
      <point x="280" y="1783" type="curve" smooth="yes"/>
      <point x="280" y="1775" type="line" smooth="yes"/>
      <point x="280" y="1686"/>
      <point x="320" y="1634"/>
    </contour>
    <component base="MatraIi.gm"/>
  </outline>
</glyph>
<glyph name="MatraOo.gm.alt" format="2">
  <anchor x="400" y="1200" name="_top"/>
  <anchor x="710" y="1377" name="top1"/>
  <outline>
    <contour>
      <point x="253" y="1259" type="curve"/>
      <point x="400" y="1259" type="line"/>
      <point x="408" y="1330"/>
      <point x="412" y="1387"/>
      <point x="412" y="1424" type="curve" smooth="yes"/>
      <point x="412" y="1575"/>
      <point x="332" y="1649"/>
      <point x="175" y="1672" type="curve" smooth="yes"/>
      <point x="148" y="1676" type="line" smooth="yes"/>
      <point x="52" y="1690"/>
      <point x="24" y="1732"/>
      <point x="13" y="1829" type="curve"/>
      <point x="-139" y="1829" type="line"/>
      <point x="-149" y="1666" type="line" smooth="yes"/>
      <point x="-159" y="1496"/>
      <point x="-55" y="1424"/>
      <point x="114" y="1399" type="curve" smooth="yes"/>
      <point x="148" y="1394" type="line" smooth="yes"/>
      <point x="205" y="1385"/>
      <point x="248" y="1358"/>
    </contour>
  </outline>
</glyph>
<glyph name="MatraU.gm.alt" format="2">
  <anchor x="600" y="100" name="_bottom1"/>
  <outline>
    <contour>
      <point x="81" y="-1070" type="curve" smooth="yes"/>
      <point x="166" y="-1070"/>
      <point x="265" y="-1055"/>
      <point x="323" y="-1035" type="curve"/>
      <point x="331" y="-857" type="line"/>
      <point x="270" y="-874"/>
      <point x="173" y="-890"/>
      <point x="86" y="-890" type="curve" smooth="yes"/>
      <point x="-3" y="-890"/>
      <point x="-100" y="-875"/>
      <point x="-159" y="-857" type="curve"/>
      <point x="-151" y="-1035" type="line"/>
      <point x="-93" y="-1056"/>
      <point x="-7" y="-1070"/>
    </contour>
  </outline>
</glyph>
<glyph name="MatraUu.gm.alt" format="2">
  <anchor x="600" y="100" name="_bottom1"/>
  <outline>
    <contour>
      <point x="71" y="-1011" type="curve" smooth="yes"/>
      <point x="156" y="-1011"/>
      <point x="255" y="-996"/>
      <point x="313" y="-976" type="curve"/>
      <point x="321" y="-827" type="line"/>
      <point x="260" y="-844"/>
      <point x="163" y="-860"/>
      <point x="76" y="-860" type="curve" smooth="yes"/>
      <point x="-13" y="-860"/>
      <point x="-110" y="-845"/>
      <point x="-169" y="-827" type="curve"/>
      <point x="-161" y="-976" type="line"/>
      <point x="-103" y="-997"/>
      <point x="-17" y="-1011"/>
    </contour>
    <contour>
      <point x="71" y="-1247" type="curve" smooth="yes"/>
      <point x="156" y="-1247"/>
      <point x="255" y="-1233"/>
      <point x="313" y="-1214" type="curve"/>
      <point x="321" y="-1063" type="line"/>
      <point x="260" y="-1080"/>
      <point x="163" y="-1096"/>
      <point x="76" y="-1096" type="curve" smooth="yes"/>
      <point x="-13" y="-1096"/>
      <point x="-110" y="-1081"/>
      <point x="-169" y="-1063" type="curve"/>
      <point x="-161" y="-1214" type="line"/>
      <point x="-103" y="-1234"/>
      <point x="-17" y="-1247"/>
    </contour>
  </outline>
</glyph>
<glyph name="NaHa.gm" format="2">
  <advance width="962"/>
  <anchor x="989" y="-569" name="bottom1"/>
  <anchor x="633" y="1200" name="top"/>
  <outline>
    <contour>
      <point x="145" y="0" type="curve"/>
      <point x="432" y="0" type="line"/>
      <point x="430" y="5" type="line"/>
      <point x="393" y="103"/>
      <point x="370" y="214"/>
      <point x="370" y="329" type="curve" smooth="yes"/>
      <point x="370" y="432" type="line" smooth="yes"/>
      <point x="370" y="550"/>
      <point x="405" y="604"/>
      <point x="482" y="650" type="curve"/>
      <point x="556" y="604"/>
      <point x="592" y="550"/>
      <point x="592" y="432" type="curve" smooth="yes"/>
      <point x="592" y="329" type="line"/>
      <point x="592" y="225"/>
      <point x="572" y="118"/>
      <point x="533" y="8" type="curve"/>
      <point x="530" y="0" type="line"/>
      <point x="815" y="0" type="line"/>
      <point x="861" y="75"/>
      <point x="896" y="193"/>
      <point x="896" y="329" type="curve"/>
      <point x="896" y="441" type="line" smooth="yes"/>
      <point x="896" y="701"/>
      <point x="754" y="865"/>
      <point x="482" y="904" type="curve"/>
      <point x="213" y="865"/>
      <point x="66" y="701"/>
      <point x="66" y="441" type="curve" smooth="yes"/>
      <point x="66" y="329" type="line"/>
      <point x="66" y="193"/>
      <point x="101" y="75"/>
    </contour>
    <contour>
      <point x="329" y="751" type="line"/>
      <point x="633" y="751" type="line"/>
      <point x="633" y="1138" type="line"/>
      <point x="329" y="1138" type="line"/>
    </contour>
    <contour>
      <point x="50" y="1029" type="line"/>
      <point x="924" y="1029" type="line"/>
      <point x="924" y="1262" type="line"/>
      <point x="50" y="1262" type="line"/>
    </contour>
    <contour>
      <point x="484" y="-725" type="curve" smooth="yes"/>
      <point x="710" y="-725"/>
      <point x="815" y="-616"/>
      <point x="815" y="-410" type="curve" smooth="yes"/>
      <point x="815" y="0" type="line"/>
      <point x="530" y="0" type="line"/>
      <point x="530" y="-445" type="line" smooth="yes"/>
      <point x="530" y="-493"/>
      <point x="505" y="-515"/>
      <point x="473" y="-515" type="curve" smooth="yes"/>
      <point x="421" y="-515"/>
      <point x="391" y="-469"/>
      <point x="391" y="-390" type="curve" smooth="yes"/>
      <point x="391" y="-382" type="line" smooth="yes"/>
      <point x="391" y="-319"/>
      <point x="412" y="-291"/>
      <point x="459" y="-291" type="curve" smooth="yes"/>
      <point x="468" y="-291" type="line"/>
      <point x="468" y="-79" type="line"/>
      <point x="422" y="-79" type="line" smooth="yes"/>
      <point x="228" y="-79"/>
      <point x="130" y="-180"/>
      <point x="130" y="-376" type="curve" smooth="yes"/>
      <point x="130" y="-385" type="line" smooth="yes"/>
      <point x="130" y="-571"/>
      <point x="246" y="-725"/>
    </contour>
    <component base="_cap.shiro_left"/>
    <component base="_cap.shiro_right" xOffset="629"/>
  </outline>
</glyph>
<glyph name="Nukta.gm.001" format="2">
  <outline>
    <contour>
      <point x="-974" y="-400" type="curve" smooth="yes"/>
      <point x="-893" y="-400"/>
      <point x="-849" y="-351"/>
      <point x="-849" y="-262" type="curve" smooth="yes"/>
      <point x="-849" y="-243" type="line" smooth="yes"/>
      <point x="-849" y="-155"/>
      <point x="-893" y="-105"/>
      <point x="-974" y="-105" type="curve" smooth="yes"/>
      <point x="-1056" y="-105"/>
      <point x="-1098" y="-155"/>
      <point x="-1098" y="-243" type="curve" smooth="yes"/>
      <point x="-1098" y="-262" type="line" smooth="yes"/>
      <point x="-1098" y="-351"/>
      <point x="-1056" y="-400"/>
    </contour>
  </outline>
</glyph>
<glyph name="PairinHa.gm" format="2">
  <anchor x="600" y="100" name="_bottom"/>
  <anchor x="600" y="130" name="bottom1"/>
  <outline>
    <contour>
      <point x="79" y="-725" type="curve" smooth="yes"/>
      <point x="305" y="-725"/>
      <point x="420" y="-616"/>
      <point x="420" y="-410" type="curve" smooth="yes"/>
      <point x="420" y="55" type="line"/>
      <point x="120" y="25" type="line"/>
      <point x="120" y="-445" type="line" smooth="yes"/>
      <point x="120" y="-493"/>
      <point x="100" y="-515"/>
      <point x="68" y="-515" type="curve" smooth="yes"/>
      <point x="16" y="-515"/>
      <point x="-14" y="-469"/>
      <point x="-14" y="-390" type="curve" smooth="yes"/>
      <point x="-14" y="-382" type="line" smooth="yes"/>
      <point x="-14" y="-319"/>
      <point x="7" y="-291"/>
      <point x="54" y="-291" type="curve" smooth="yes"/>
      <point x="63" y="-291" type="line"/>
      <point x="63" y="-79" type="line"/>
      <point x="17" y="-79" type="line" smooth="yes"/>
      <point x="-177" y="-79"/>
      <point x="-275" y="-180"/>
      <point x="-275" y="-376" type="curve" smooth="yes"/>
      <point x="-275" y="-385" type="line" smooth="yes"/>
      <point x="-275" y="-571"/>
      <point x="-159" y="-725"/>
    </contour>
  </outline>
</glyph>
<glyph name="PairinRa.gm" format="2">
  <anchor x="600" y="100" name="_bottom"/>
  <anchor x="600" y="400" name="bottom1"/>
  <outline>
    <contour>
      <point x="607" y="-653" type="curve"/>
      <point x="593" y="-368" type="line"/>
      <point x="507" y="-303"/>
      <point x="324" y="-206"/>
      <point x="223" y="-175" type="curve"/>
      <point x="82" y="-349" type="line"/>
      <point x="208" y="-399"/>
      <point x="513" y="-584"/>
    </contour>
    <contour>
      <point x="-181" y="-379" type="line"/>
      <point x="210" y="-379" type="line"/>
      <point x="354" y="-273" type="line"/>
      <point x="404" y="-205"/>
      <point x="420" y="-124"/>
      <point x="420" y="-50" type="curve" smooth="yes"/>
      <point x="420" y="60" type="line"/>
      <point x="120" y="30" type="line"/>
      <point x="120" y="-22" type="line" smooth="yes"/>
      <point x="120" y="-85"/>
      <point x="110" y="-174"/>
      <point x="82" y="-239" type="curve"/>
      <point x="159" y="-109" type="line"/>
      <point x="-166" y="-109" type="line"/>
    </contour>
  </outline>
</glyph>
<glyph name="PairinVa.gm" format="2">
  <anchor x="600" y="100" name="_bottom"/>
  <anchor x="600" y="130" name="bottom1"/>
  <outline>
    <contour>
      <point x="86" y="-494" type="curve"/>
      <point x="391" y="-494" type="line"/>
      <point x="391" y="-332" type="line"/>
      <point x="131" y="-332" type="line"/>
      <point x="99" y="-332"/>
      <point x="85" y="-317"/>
      <point x="85" y="-297" type="curve" smooth="yes"/>
      <point x="85" y="-273"/>
      <point x="100" y="-261"/>
      <point x="131" y="-261" type="curve"/>
      <point x="420" y="-261" type="line"/>
      <point x="420" y="55" type="line"/>
      <point x="120" y="25" type="line"/>
      <point x="120" y="-86" type="line"/>
      <point x="84" y="-86" type="line" smooth="yes"/>
      <point x="-75" y="-86"/>
      <point x="-138" y="-169"/>
      <point x="-138" y="-282" type="curve" smooth="yes"/>
      <point x="-138" y="-405"/>
      <point x="-55" y="-494"/>
    </contour>
    <contour>
      <point x="344" y="-730" type="curve" smooth="yes"/>
      <point x="374" y="-730"/>
      <point x="391" y="-728"/>
      <point x="419" y="-722" type="curve"/>
      <point x="436" y="-558" type="line"/>
      <point x="416" y="-562"/>
      <point x="406" y="-563"/>
      <point x="377" y="-563" type="curve" smooth="yes"/>
      <point x="311" y="-563"/>
      <point x="260" y="-540"/>
      <point x="252" y="-442" type="curve"/>
      <point x="5" y="-417" type="line"/>
      <point x="62" y="-663"/>
      <point x="187" y="-730"/>
    </contour>
  </outline>
</glyph>
<glyph name="Rha.gm" format="2">
  <advance width="810"/>
  <anchor x="720" y="-143" name="bottom"/>
  <anchor x="988" y="-210" name="bottom1"/>
  <anchor x="722" y="1200" name="top"/>
  <outline>
    <contour>
      <point x="57" y="1029" type="line"/>
      <point x="775" y="1029" type="line"/>
      <point x="775" y="1262" type="line"/>
      <point x="57" y="1262" type="line"/>
    </contour>
    <contour>
      <point x="188" y="-171" type="line"/>
      <point x="446" y="-171" type="line"/>
      <point x="291" y="105" type="line"/>
      <point x="83" y="68" type="line"/>
    </contour>
    <contour>
      <point x="693" y="-362" type="curve" smooth="yes"/>
      <point x="832" y="-362"/>
      <point x="914" y="-286"/>
      <point x="914" y="-172" type="curve" smooth="yes"/>
      <point x="914" y="-140"/>
      <point x="902" y="-103"/>
      <point x="880" y="-60" type="curve" smooth="yes"/>
      <point x="688" y="310" type="line"/>
      <point x="543" y="161" type="line"/>
      <point x="713" y="-135" type="line" smooth="yes"/>
      <point x="721" y="-149"/>
      <point x="727" y="-160"/>
      <point x="727" y="-174" type="curve"/>
      <point x="727" y="-194"/>
      <point x="713" y="-207"/>
      <point x="689" y="-207" type="curve"/>
      <point x="659" y="-207"/>
      <point x="638" y="-190"/>
      <point x="638" y="-167" type="curve"/>
      <point x="638" y="-149"/>
      <point x="649" y="-139"/>
      <point x="665" y="-132" type="curve"/>
      <point x="591" y="0" type="line"/>
      <point x="511" y="-14"/>
      <point x="454" y="-74"/>
      <point x="454" y="-157" type="curve" smooth="yes"/>
      <point x="454" y="-282"/>
      <point x="559" y="-362"/>
    </contour>
    <contour>
      <point x="341" y="18" type="curve" smooth="yes"/>
      <point x="612" y="18"/>
      <point x="724" y="155"/>
      <point x="724" y="360" type="curve" smooth="yes"/>
      <point x="724" y="400" type="line" smooth="yes"/>
      <point x="724" y="588"/>
      <point x="619" y="680"/>
      <point x="381" y="677" type="curve"/>
      <point x="477" y="563" type="line"/>
      <point x="477" y="679" type="line"/>
      <point x="610" y="685"/>
      <point x="700" y="762"/>
      <point x="700" y="930" type="curve" smooth="yes"/>
      <point x="700" y="1088" type="line"/>
      <point x="396" y="1088" type="line"/>
      <point x="396" y="940" type="line" smooth="yes"/>
      <point x="396" y="858"/>
      <point x="370" y="812"/>
      <point x="258" y="812" type="curve" smooth="yes"/>
      <point x="114" y="812" type="line"/>
      <point x="114" y="532" type="line"/>
      <point x="281" y="532" type="line" smooth="yes"/>
      <point x="391" y="532"/>
      <point x="420" y="488"/>
      <point x="420" y="412" type="curve" smooth="yes"/>
      <point x="420" y="390" type="line" smooth="yes"/>
      <point x="420" y="315"/>
      <point x="375" y="273"/>
      <point x="284" y="273" type="curve" smooth="yes"/>
      <point x="208" y="273"/>
      <point x="131" y="298"/>
      <point x="68" y="326" type="curve"/>
      <point x="83" y="68" type="line"/>
      <point x="143" y="41"/>
      <point x="236" y="18"/>
    </contour>
    <component base="_cap.shiro_left"/>
    <component base="_cap.shiro_right" xOffset="494"/>
  </outline>
</glyph>
<glyph name="Virama.gm.alt" format="2">
  <anchor x="600" y="100" name="_bottom1"/>
  <outline>
    <contour>
      <point x="152" y="-1126" type="line"/>
      <point x="380" y="-1129" type="line"/>
      <point x="205" y="-845" type="line"/>
      <point x="-49" y="-845" type="line"/>
    </contour>
  </outline>
</glyph>
<glyph name="_EEmatra" format="2">
  <advance width="460"/>
  <anchor x="688" y="1373" name="top1"/>
  <outline>
    <contour>
      <point x="80" y="1214" type="line"/>
      <point x="380" y="1218" type="line"/>
      <point x="380" y="1342" type="line" smooth="yes"/>
      <point x="380" y="1591"/>
      <point x="241" y="1733"/>
      <point x="-7" y="1733" type="curve" smooth="yes"/>
      <point x="-253" y="1733"/>
      <point x="-396" y="1591"/>
      <point x="-396" y="1338" type="curve" smooth="yes"/>
      <point x="-396" y="1326" type="line"/>
      <point x="-94" y="1326" type="line"/>
      <point x="-94" y="1342" type="line" smooth="yes"/>
      <point x="-94" y="1442"/>
      <point x="-67" y="1488"/>
      <point x="-7" y="1488" type="curve" smooth="yes"/>
      <point x="57" y="1488"/>
      <point x="80" y="1442"/>
      <point x="80" y="1342" type="curve" smooth="yes"/>
    </contour>
    <contour>
      <point x="80" y="0" type="line"/>
      <point x="380" y="0" type="line"/>
      <point x="380" y="1078" type="line"/>
      <point x="80" y="1078" type="line"/>
    </contour>
    <contour>
      <point x="-86" y="1029" type="line"/>
      <point x="485" y="1029" type="line"/>
      <point x="499" y="1262" type="line"/>
      <point x="-72" y="1262" type="line"/>
    </contour>
  </outline>
</glyph>
<glyph name="_Ematra" format="2">
  <advance width="460"/>
  <outline>
    <contour>
      <point x="80" y="1218" type="line"/>
      <point x="380" y="1214" type="line"/>
      <point x="380" y="1342" type="line" smooth="yes"/>
      <point x="380" y="1442"/>
      <point x="403" y="1488"/>
      <point x="467" y="1488" type="curve" smooth="yes"/>
      <point x="527" y="1488"/>
      <point x="554" y="1442"/>
      <point x="554" y="1342" type="curve" smooth="yes"/>
      <point x="554" y="1326" type="line"/>
      <point x="856" y="1326" type="line"/>
      <point x="856" y="1338" type="line" smooth="yes"/>
      <point x="856" y="1591"/>
      <point x="713" y="1733"/>
      <point x="467" y="1733" type="curve" smooth="yes"/>
      <point x="219" y="1733"/>
      <point x="80" y="1591"/>
      <point x="80" y="1342" type="curve" smooth="yes"/>
    </contour>
    <contour>
      <point x="80" y="0" type="line"/>
      <point x="380" y="0" type="line"/>
      <point x="380" y="1082" type="line"/>
      <point x="80" y="1086" type="line"/>
    </contour>
    <contour>
      <point x="-33" y="1029" type="line"/>
      <point x="503" y="1029" type="line"/>
      <point x="519" y="1262" type="line"/>
      <point x="-18" y="1262" type="line"/>
    </contour>
  </outline>
</glyph>
<glyph name="_cap.shiro_left" format="2">
  <advance width="333"/>
  <outline>
    <contour>
      <point x="-33" y="1029" type="line"/>
      <point x="149" y="1029" type="line"/>
      <point x="149" y="1262" type="line"/>
      <point x="-18" y="1262" type="line"/>
    </contour>
  </outline>
</glyph>
<glyph name="_cap.shiro_right" format="2">
  <advance width="333"/>
  <outline>
    <contour>
      <point x="184" y="1029" type="line"/>
      <point x="351" y="1029" type="line"/>
      <point x="366" y="1262" type="line"/>
      <point x="184" y="1262" type="line"/>
    </contour>
  </outline>
</glyph>
<glyph name="_danda" format="2">
  <advance width="564"/>
  <outline>
    <contour>
      <point x="184" y="0" type="line"/>
      <point x="484" y="0" type="line"/>
      <point x="484" y="1029" type="line"/>
      <point x="521" y="1029" type="line"/>
      <point x="521" y="1262" type="line"/>
      <point x="184" y="1262" type="line"/>
    </contour>
    <component base="_cap.shiro_right" xOffset="231"/>
  </outline>
</glyph>
<glyph name="_danda001" format="2">
  <advance width="460"/>
  <outline>
    <contour>
      <point x="80" y="460" type="line"/>
      <point x="380" y="460" type="line"/>
      <point x="380" y="1183" type="line"/>
      <point x="80" y="1183" type="line"/>
    </contour>
    <contour>
      <point x="-33" y="1029" type="line"/>
      <point x="478" y="1029" type="line"/>
      <point x="493" y="1262" type="line"/>
      <point x="-18" y="1262" type="line"/>
    </contour>
  </outline>
</glyph>
<glyph name="_part.shiro" format="2">
  <advance width="907"/>
  <outline>
    <contour>
      <point x="-30" y="1029" type="line"/>
      <point x="924" y="1029" type="line"/>
      <point x="939" y="1262" type="line"/>
      <point x="-15" y="1262" type="line"/>
    </contour>
  </outline>
</glyph>
<glyph name="acutecomb.narrow" format="2">
  <anchor x="215" y="1006" name="_top"/>
  <anchor x="215" y="1366" name="top"/>
  <outline>
    <contour>
      <point x="164" y="1366" type="line"/>
      <point x="100" y="1076" type="line"/>
      <point x="100" y="1076" type="line"/>
      <point x="330" y="1076" type="line"/>
      <point x="462" y="1366" type="line"/>
      <point x="462" y="1366" type="line"/>
    </contour>
  </outline>
</glyph>
